<svg width="24" height="24" viewBox="0 0 24 24" fill="none" xmlns="http://www.w3.org/2000/svg">
<g id="Linear / Time / History">
<path id="Vector" d="M12 8V12L14.5 14.5" stroke="#ABB6CC" stroke-width="2" stroke-linecap="round" stroke-linejoin="round"/>
<path id="Vector_2" d="M5.60414 5.60423L4.89703 4.89712L4.89703 4.89712L5.60414 5.60423ZM4.33776 6.87061L3.33777 6.87564C3.34053 7.42399 3.78438 7.86784 4.33274 7.8706L4.33776 6.87061ZM6.87829 7.88339C7.43056 7.88617 7.88052 7.44071 7.8833 6.88843C7.88608 6.33615 7.44062 5.88619 6.88834 5.88342L6.87829 7.88339ZM5.32496 4.32004C5.32218 3.76776 4.87222 3.3223 4.31994 3.32507C3.76767 3.32785 3.32221 3.77781 3.32498 4.33009L5.32496 4.32004ZM4.07429 10.819C4.14929 10.2718 3.76652 9.76743 3.21935 9.69243C2.67219 9.61742 2.16782 10.0002 2.09282 10.5474L4.07429 10.819ZM19.039 4.96108C15.1229 1.04494 8.79125 1.00291 4.89703 4.89712L6.31125 6.31134C9.41105 3.21153 14.4763 3.22677 17.6248 6.3753L19.039 4.96108ZM4.96099 19.0391C8.87714 22.9552 15.2087 22.9973 19.103 19.1031L17.6888 17.6888C14.5889 20.7886 9.52373 20.7734 6.37521 17.6249L4.96099 19.0391ZM19.103 19.1031C22.9972 15.2088 22.9552 8.87723 19.039 4.96108L17.6248 6.3753C20.7733 9.52383 20.7886 14.589 17.6888 17.6888L19.103 19.1031ZM4.89703 4.89712L3.63065 6.16351L5.04487 7.57772L6.31125 6.31134L4.89703 4.89712ZM4.33274 7.8706L6.87829 7.88339L6.88834 5.88342L4.34279 5.87062L4.33274 7.8706ZM5.33775 6.86559L5.32496 4.32004L3.32498 4.33009L3.33777 6.87564L5.33775 6.86559ZM2.09282 10.5474C1.68114 13.5508 2.63993 16.718 4.96099 19.0391L6.37521 17.6249C4.51184 15.7615 3.74456 13.2245 4.07429 10.819L2.09282 10.5474Z" fill="#ABB6CC"/>
</g>
</svg>
