<svg width="14" height="14" viewBox="0 0 14 14" fill="none" xmlns="http://www.w3.org/2000/svg">
<path d="M5.33937 3.15472C6.07824 1.82924 6.44768 1.1665 7.00002 1.1665C7.55236 1.1665 7.9218 1.82924 8.66067 3.15472L8.85183 3.49764C9.0618 3.8743 9.16678 4.06263 9.33047 4.18689C9.49416 4.31115 9.69802 4.35728 10.1058 4.44953L10.477 4.53352C11.9118 4.85816 12.6292 5.02048 12.7999 5.56935C12.9705 6.11821 12.4815 6.69013 11.5033 7.83396L11.2502 8.12988C10.9723 8.45492 10.8333 8.61744 10.7708 8.8185C10.7082 9.01956 10.7293 9.2364 10.7713 9.67008L10.8095 10.0649C10.9574 11.591 11.0314 12.3541 10.5845 12.6933C10.1377 13.0325 9.46596 12.7232 8.12254 12.1047L7.77499 11.9447C7.39323 11.7689 7.20235 11.681 7.00002 11.681C6.79769 11.681 6.60681 11.7689 6.22505 11.9447L5.8775 12.1047C4.53408 12.7232 3.86237 13.0325 3.41552 12.6933C2.96867 12.3541 3.04262 11.591 3.1905 10.0649L3.22876 9.67008C3.27079 9.2364 3.2918 9.01956 3.22927 8.8185C3.16675 8.61744 3.02777 8.45492 2.74981 8.12988L2.49674 7.83396C1.51858 6.69013 1.0295 6.11821 1.20018 5.56935C1.37086 5.02048 2.08827 4.85816 3.52308 4.53352L3.89429 4.44953C4.30202 4.35728 4.50588 4.31115 4.66957 4.18689C4.83326 4.06263 4.93824 3.8743 5.14821 3.49764L5.33937 3.15472Z" fill="#FF9900"/>
</svg>
