<svg width="138" height="36" viewBox="0 0 138 36" fill="none" xmlns="http://www.w3.org/2000/svg">
<g clip-path="url(#clip0_51_3851)">
<path fill-rule="evenodd" clip-rule="evenodd" d="M-0.00012207 0V33.6L34.3465 0H-0.00012207Z" fill="#92CFAE"/>
<path fill-rule="evenodd" clip-rule="evenodd" d="M2.45325 36.0004H36.7999V2.40039L2.45325 36.0004Z" fill="#2A8288"/>
<path fill-rule="evenodd" clip-rule="evenodd" d="M56.0928 17.2196C60.0864 17.2196 62.2094 15.3065 62.2094 11.7319V11.5299C62.2094 7.70358 59.985 6.19319 56.0928 6.19319H51.9476V17.2196H56.0928ZM43.8094 0H56.295C65.0904 0 70.0951 3.87667 70.0951 11.4801V11.6809C70.0951 19.2838 64.7876 22.9094 56.5474 22.9094H51.9476V36H43.8094V0Z" fill="black"/>
<path fill-rule="evenodd" clip-rule="evenodd" d="M86.2964 29.8068C90.2146 29.8068 92.1987 28.095 92.1987 24.8219V24.6211C92.1987 21.3984 90.2146 19.6363 86.0981 19.6363H81.5351V29.8068H86.2964ZM86.5941 36H73.5999V0H96.7117V6.34423H81.5851L81.5351 13.8962H86.8419C95.0254 13.8962 99.8856 17.4714 99.8856 24.6709V24.8729C99.8856 31.9214 95.3725 36 86.5941 36Z" fill="black"/>
<path fill-rule="evenodd" clip-rule="evenodd" d="M105.8 0.0502761H114.345V15.5365L127.532 0H136.604L121.677 17.0448L137.343 36H127.373L114.345 19.8602V36H105.8V0.0502761Z" fill="black"/>
</g>
<defs>
<clipPath id="clip0_51_3851">
<rect width="138" height="36" fill="white"/>
</clipPath>
</defs>
</svg>
