<svg width="68" height="68" viewBox="0 0 68 68" fill="none" xmlns="http://www.w3.org/2000/svg">
<rect width="68" height="68" fill="#122090"/>
<path fill-rule="evenodd" clip-rule="evenodd" d="M5.10008 45.9004H20.4001L18.3091 49.4614H14.2931V61.2014H10.4631V49.4604H5.10008V45.9004ZM40.8861 49.4614C40.4741 49.4614 40.1801 49.7264 40.1801 50.1734V56.9494C40.1801 57.3964 40.4741 57.6404 40.8861 57.6404H48.3981V61.2004H40.8861C38.2561 61.2004 36.5511 59.5534 36.5511 56.9494V50.1734C36.5511 47.5894 38.2571 45.9004 40.8861 45.9004H49.3001L47.3191 49.4614H40.8851H40.8861ZM30.2941 57.7604H24.9431C24.1791 57.7604 23.6221 57.1954 23.6221 56.4204C23.6221 55.6254 24.1801 55.0604 24.9431 55.0604H30.2931V57.7604H30.2941ZM29.5931 45.9454H22.6671L20.6431 49.4954H29.5931C30.0331 49.4954 30.2931 49.7604 30.2931 50.2054V51.8284H24.4881C21.8251 51.8284 19.8631 53.8164 19.8631 56.5144C19.8631 59.2124 21.8251 61.2004 24.4881 61.2004H33.9981V50.2054C33.9981 47.6294 32.2561 45.9454 29.5931 45.9454ZM54.4851 49.4614C54.0731 49.4614 53.7791 49.7264 53.7791 50.1734V56.9494C53.7791 57.3964 54.0731 57.6404 54.4851 57.6404H61.9971V61.2004H54.4851C51.8571 61.2004 50.1501 59.5534 50.1501 56.9494V50.1734C50.1501 47.5894 51.8571 45.9004 54.4851 45.9004H62.9001L60.9181 49.4614H54.4851Z" fill="white"/>
</svg>
