<svg width="23" height="22" viewBox="0 0 23 22" fill="none" xmlns="http://www.w3.org/2000/svg">
<path d="M3.93696 18.0078C5.03558 19.25 7.08031 19.25 11.1698 19.25H11.8302C15.9197 19.25 17.9644 19.25 19.063 18.0078M3.93696 18.0078C2.83833 16.7656 3.21515 14.8798 3.96879 11.108C4.50474 8.42576 4.77272 7.08462 5.79009 6.29231M3.93696 18.0078C3.93696 18.0078 3.93696 18.0078 3.93696 18.0078ZM19.063 18.0078C20.1617 16.7656 19.7848 14.8798 19.0312 11.108C18.4953 8.42576 18.2273 7.08462 17.2099 6.29231M19.063 18.0078C19.063 18.0078 19.063 18.0078 19.063 18.0078ZM17.2099 6.29231C16.1925 5.5 14.7384 5.5 11.8302 5.5H11.1698C8.26156 5.5 6.80746 5.5 5.79009 6.29231M17.2099 6.29231C17.2099 6.29231 17.2099 6.29231 17.2099 6.29231ZM5.79009 6.29231C5.79009 6.29231 5.79009 6.29231 5.79009 6.29231Z" stroke="#00C293" stroke-width="2"/>
<path d="M9.66797 12.5583C10.1453 12.9879 10.4129 13.2287 10.8902 13.6583L13.3346 10.9083" stroke="#00C293" stroke-width="2" stroke-linecap="round" stroke-linejoin="round"/>
<path d="M8.75 5.50004V4.58337C8.75 3.06459 9.98122 1.83337 11.5 1.83337C13.0188 1.83337 14.25 3.06459 14.25 4.58337V5.50004" stroke="#00C293" stroke-width="2" stroke-linecap="round"/>
</svg>
