<svg width="25" height="24" viewBox="0 0 25 24" fill="none" xmlns="http://www.w3.org/2000/svg">
<path d="M21.4752 11.8148L20.4898 11.9852L21.4752 11.8148ZM20.7696 7.73505L19.7842 7.90545L20.7696 7.73505ZM7.43777 3.52293L6.44149 3.43678L7.43777 3.52293ZM6.62561 12.9156L7.62189 13.0017L6.62561 12.9156ZM14.495 18.7786L15.4818 18.6169V18.6169L14.495 18.7786ZM13.8323 14.734L14.8191 14.5723V14.5723L13.8323 14.734ZM7.19814 14.3225L6.54535 15.0801H6.54535L7.19814 14.3225ZM8.63688 15.5623L9.28967 14.8048L9.28967 14.8048L8.63688 15.5623ZM11.0181 19.2163L10.0501 19.4673L10.0501 19.4673L11.0181 19.2163ZM11.4938 21.0501L12.4617 20.799L12.4617 20.799L11.4938 21.0501ZM13.1676 21.9356L12.8617 20.9836L12.8617 20.9836L13.1676 21.9356ZM13.3126 21.8891L13.6184 22.8412L13.6184 22.8412L13.3126 21.8891ZM10.3619 17.5374L11.244 17.0662L10.3619 17.5374ZM14.4047 20.7525L13.4367 20.5014V20.5014L14.4047 20.7525ZM12.1742 21.8676L11.7401 22.7685V22.7685L12.1742 21.8676ZM4.4716 2.52928L3.47532 2.44313H3.47532L4.4716 2.52928ZM3.5 13.7658L4.49628 13.8519C4.45015 14.3855 3.99191 14.788 3.45689 14.7649C2.92187 14.7418 2.5 14.3013 2.5 13.7658H3.5ZM20.4898 11.9852L19.7842 7.90545L21.755 7.56464L22.4605 11.6444L20.4898 11.9852ZM13.745 3H9.09635V1H13.745V3ZM8.43405 3.60908L7.62189 13.0017L5.62932 12.8295L6.44149 3.43678L8.43405 3.60908ZM19.7842 7.90545C19.2993 5.10114 16.7663 3 13.745 3V1C17.6862 1 21.0953 3.75007 21.755 7.56464L19.7842 7.90545ZM13.5081 18.9403L12.8454 14.8957L14.8191 14.5723L15.4818 18.6169L13.5081 18.9403ZM7.85093 13.565L9.28967 14.8048L7.98409 16.3198L6.54535 15.0801L7.85093 13.565ZM11.986 18.9652L12.4617 20.799L10.5258 21.3012L10.0501 19.4673L11.986 18.9652ZM12.8617 20.9836L13.0067 20.937L13.6184 22.8412L13.4734 22.8877L12.8617 20.9836ZM11.244 17.0662C11.5652 17.6675 11.8147 18.3046 11.986 18.9652L10.0501 19.4673C9.91874 18.961 9.72724 18.4716 9.4799 18.0086L11.244 17.0662ZM13.0067 20.937C13.2347 20.8638 13.3875 20.6911 13.4367 20.5014L15.3726 21.0036C15.1449 21.8816 14.4739 22.5663 13.6184 22.8412L13.0067 20.937ZM12.4617 20.799C12.4777 20.8606 12.5249 20.9265 12.6083 20.9667L11.7401 22.7685C11.144 22.4812 10.6941 21.9499 10.5258 21.3012L12.4617 20.799ZM12.6083 20.9667C12.6851 21.0037 12.7775 21.0106 12.8617 20.9836L13.4734 22.8877C12.9029 23.071 12.2807 23.029 11.7401 22.7685L12.6083 20.9667ZM14.6537 12.7658H19.8348V14.7658H14.6537V12.7658ZM5.46788 2.61543L4.49628 13.8519L2.50372 13.6797L3.47532 2.44313L5.46788 2.61543ZM4.5 2.48726V13.7658H2.5V2.48726H4.5ZM3.47532 2.44313C3.44952 2.74141 3.68458 3 3.98671 3V1C4.85955 1 5.54289 1.74791 5.46788 2.61543L3.47532 2.44313ZM15.4818 18.6169C15.612 19.4114 15.5748 20.2243 15.3726 21.0036L13.4367 20.5014C13.5689 19.9917 13.5933 19.4599 13.5081 18.9403L15.4818 18.6169ZM9.09635 3C8.75239 3 8.46393 3.26357 8.43405 3.60908L6.44149 3.43678C6.56061 2.05921 7.71274 1 9.09635 1V3ZM9.28967 14.8048C9.97363 15.3942 10.7367 16.1165 11.244 17.0662L9.4799 18.0086C9.15652 17.4032 8.6352 16.8809 7.98409 16.3198L9.28967 14.8048ZM22.4605 11.6444C22.7422 13.2734 21.4895 14.7658 19.8348 14.7658V12.7658C20.246 12.7658 20.5605 12.3942 20.4898 11.9852L22.4605 11.6444ZM3.98671 3C4.27126 3 4.5 2.76937 4.5 2.48726H2.5C2.5 1.66694 3.16455 1 3.98671 1V3ZM12.8454 14.8957C12.6628 13.781 13.522 12.7658 14.6537 12.7658V14.7658C14.7584 14.7658 14.8355 14.6724 14.8191 14.5723L12.8454 14.8957ZM7.62189 13.0017C7.60338 13.2158 7.68884 13.4253 7.85093 13.565L6.54535 15.0801C5.89613 14.5206 5.55551 13.6831 5.62932 12.8295L7.62189 13.0017Z" fill="#ABB6CC"/>
</svg>
