<svg width="20" height="20" viewBox="0 0 20 20" fill="none" xmlns="http://www.w3.org/2000/svg">
<path d="M2.1474 12.8837C1.38247 11.9175 1 11.4345 1 10C1 8.56555 1.38247 8.08246 2.1474 7.11629C3.67477 5.18711 6.2363 3 10 3C13.7637 3 16.3252 5.18711 17.8526 7.11629C18.6175 8.08246 19 8.56555 19 10C19 11.4345 18.6175 11.9175 17.8526 12.8837C16.3252 14.8129 13.7637 17 10 17C6.2363 17 3.67477 14.8129 2.1474 12.8837Z" stroke="#ABB6CC" stroke-width="2"/>
<path d="M12.5 10C12.5 11.3807 11.3807 12.5 10 12.5C8.61929 12.5 7.5 11.3807 7.5 10C7.5 8.61929 8.61929 7.5 10 7.5C11.3807 7.5 12.5 8.61929 12.5 10Z" stroke="#ABB6CC" stroke-width="2"/>
</svg>
