<svg width="14" height="24" viewBox="0 0 14 24" fill="none" xmlns="http://www.w3.org/2000/svg">
<path fill-rule="evenodd" clip-rule="evenodd" d="M6.9858 12.4093C3.56014 12.4093 0.71513 9.59428 0.71513 6.26209C0.71513 2.81508 3.56014 0 6.9858 0C10.5275 0 13.2565 2.81508 13.2565 6.26209C13.2565 9.59428 10.5275 12.4093 6.9858 12.4093ZM6.9858 3.61939C5.53425 3.61939 4.43108 4.82585 4.43108 6.26209C4.43108 7.69835 5.53425 8.78993 6.9858 8.78993C8.49539 8.78993 9.54052 7.69835 9.54052 6.26209C9.54052 4.82585 8.49539 3.61939 6.9858 3.61939ZM9.48249 17.5225L13.0242 20.912C13.721 21.6589 13.721 22.7504 13.0242 23.4399C12.2694 24.1867 11.1082 24.1867 10.5275 23.4399L6.9858 19.9928L3.56014 23.4399C3.21176 23.7846 2.74731 23.9569 2.22474 23.9569C1.8183 23.9569 1.35381 23.7846 0.947379 23.4399C0.250638 22.7504 0.250638 21.6589 0.947379 20.912L4.54723 17.5225C3.21176 17.1203 1.99251 16.6032 0.831251 15.9138C-0.0396717 15.4542 -0.213861 14.3052 0.250638 13.4435C0.831251 12.5817 1.87636 12.3519 2.80534 12.9264C5.36007 14.4776 8.61154 14.4776 11.1663 12.9264C12.0952 12.3519 13.1984 12.5817 13.721 13.4435C14.2435 14.3052 14.0112 15.4542 13.1984 15.9138C12.0952 16.6032 10.8179 17.1203 9.48249 17.5225Z" fill="white"/>
</svg>
