<svg width="22" height="17" viewBox="0 0 22 17" fill="none" xmlns="http://www.w3.org/2000/svg">
<path d="M1.48236 7.30784C8.25226 4.54334 17.0125 1.1729 18.2221 0.706311C21.394 -0.514563 22.3674 -0.280817 21.8821 2.42345C21.5335 4.36714 20.5282 10.8014 19.7262 14.8066C19.2507 17.1818 18.1834 17.4632 16.5059 16.4356C15.6992 15.9412 11.6266 13.441 10.7423 12.8539C9.93554 12.319 8.82271 11.6753 10.2183 10.4077C10.7152 9.95637 13.9704 7.0705 16.5069 4.82474C16.8391 4.52986 16.4217 4.04528 16.0381 4.28173C12.6193 6.38634 7.87938 9.30727 7.276 9.68756C6.36463 10.262 5.48909 10.5254 3.91817 10.1065C2.73077 9.79005 1.57146 9.41246 1.12013 9.26861C-0.618348 8.71481 -0.205761 7.99739 1.48236 7.30784Z" fill="white"/>
</svg>
