<svg width="244" height="244" viewBox="0 0 244 244" fill="none" xmlns="http://www.w3.org/2000/svg">
<rect x="24" y="24" width="196" height="196" rx="98" fill="#E0F7F2"/>
<path d="M123.363 87.6194C122.954 87.905 122.487 88.0977 121.996 88.1842C121.504 88.2706 120.999 88.2485 120.517 88.1196C120.035 87.9906 119.587 87.7579 119.205 87.4378C118.823 87.1177 118.516 86.718 118.306 86.2669L106.234 87.4849L109.157 81.9178L120.173 81.6147C120.957 81.3128 121.825 81.308 122.612 81.6012C123.399 81.8944 124.051 82.4651 124.444 83.2053C124.837 83.9454 124.944 84.8036 124.745 85.6171C124.546 86.4307 124.054 87.1431 123.363 87.6194Z" fill="#FFB6B6"/>
<path d="M88.5274 93.0984L61.9266 82.1142C59.819 81.2412 58.145 79.5709 57.2719 77.4695C56.3987 75.3682 56.3978 73.0075 57.2692 70.9055C57.753 69.7422 58.4879 68.6994 59.4216 67.851C60.3553 67.0025 61.465 66.3693 62.6719 65.9963C63.8789 65.6233 65.1534 65.5197 66.405 65.6927C67.6567 65.8657 68.8548 66.3112 69.9142 66.9975L91.3472 80.8827L113.653 79.7571L115.323 86.6788L88.5274 93.0984Z" fill="#00BFA6"/>
<path d="M83.627 211.181H87.8859L89.912 194.811L83.6262 194.812L83.627 211.181Z" fill="#FFB6B6"/>
<path d="M82.1846 209.087L88.9172 208.687V211.561L95.3181 215.967C95.6342 216.184 95.8724 216.497 95.9976 216.858C96.1229 217.22 96.1288 217.613 96.0145 217.978C95.9002 218.344 95.6716 218.663 95.3621 218.89C95.0526 219.117 94.6784 219.239 94.2942 219.239H86.2788L84.8972 216.396L84.3578 219.239H81.3356L82.1846 209.087Z" fill="#2F2E41"/>
<path d="M56.2252 211.181H60.4841L62.5102 194.811L56.2244 194.812L56.2252 211.181Z" fill="#FFB6B6"/>
<path d="M54.7828 209.087L61.5155 208.687V211.561L67.9164 215.967C68.2325 216.184 68.4707 216.497 68.5959 216.858C68.7212 217.22 68.7271 217.613 68.6128 217.978C68.4985 218.344 68.2699 218.663 67.9604 218.89C67.6509 219.117 67.2767 219.239 66.8925 219.239H58.8771L57.4955 216.396L56.956 219.239H53.9339L54.7828 209.087Z" fill="#2F2E41"/>
<path d="M77.7554 120.651L94.36 153.478C95.27 155.272 95.5513 157.317 95.1593 159.289C94.8219 160.973 94.3041 162.616 93.6147 164.191L91.3866 190.534L89.3901 198.797L82.2077 199.407C82.2077 199.407 82.7638 192.481 80.8176 182.769C78.8714 173.056 82.2077 158.911 82.2077 158.911C82.2077 158.911 76.0872 148.93 69.1287 143.935C62.1702 138.941 77.7554 120.651 77.7554 120.651Z" fill="#2F2E41"/>
<path d="M59.946 105.814C59.946 105.814 56.5015 111.897 53.9568 115.172C51.6057 118.137 50.4676 121.879 50.771 125.646C51.0181 128.34 51.9681 131.245 54.3815 133.546C54.3815 133.546 56.0497 137.705 55.2156 139.926V159.623C55.2156 159.623 50.7492 182.881 54.6455 189.815L56.3277 205.379C56.3277 205.379 62.2322 207.03 62.5103 204.26C62.5103 204.26 63.2824 198.172 63.5797 196.229L63.8037 176.323C63.8496 173.737 64.6551 171.22 66.1206 169.085C67.279 167.388 68.4375 164.752 68.592 161.005L77.7554 120.651L79.7954 106.555L59.946 105.814Z" fill="#2F2E41"/>
<path d="M54.8173 84.1338L58.379 101.88L50.5759 120.008L79.7267 108.81L80.1225 107.74L81.0868 104.096L79.9442 92.7484C80.3456 91.9153 86.0588 86.6555 80.0836 77.4077L73.6291 62.3113L61.5394 62.1281L61.4892 62.1781C58.6466 65.0058 56.5498 68.4902 55.3858 72.3209C54.2217 76.1516 54.0264 80.2097 54.8173 84.1338Z" fill="#00BFA6"/>
<path d="M72.5459 136.293C72.1476 135.993 71.8202 135.61 71.5867 135.17C71.3532 134.73 71.2192 134.245 71.1943 133.748C71.1693 133.252 71.254 132.755 71.4423 132.295C71.6307 131.834 71.9181 131.42 72.2843 131.082L67.4129 120.008L73.6276 121.07L77.3008 131.423C77.8299 132.074 78.101 132.896 78.0629 133.732C78.0248 134.569 77.68 135.363 77.0938 135.963C76.5077 136.563 75.721 136.928 74.8828 136.989C74.0446 137.05 73.2131 136.802 72.5459 136.293Z" fill="#FFB6B6"/>
<path d="M56.613 104.942L58.9323 76.3419C59.1185 74.0751 60.1996 71.9746 61.9382 70.5011C63.6768 69.0277 65.931 68.3017 68.2062 68.4824C69.4657 68.5838 70.6874 68.9604 71.7845 69.5852C72.8815 70.21 73.8271 71.0679 74.5541 72.0979C75.281 73.1278 75.7715 74.3046 75.9907 75.5447C76.2099 76.7848 76.1525 78.0578 75.8225 79.2733L69.1454 103.863L77.0718 124.67L70.9745 128.38L56.613 104.942Z" fill="#00BFA6"/>
<path d="M47.4899 63.0399L76.9994 57.0279C77.812 54.3268 79.3687 51.8467 75.0709 47.6288C74.405 44.3833 72.5012 41.5219 69.7605 39.6472C67.0198 37.7724 63.6559 37.0306 60.3773 37.5779C53.6039 36.9772 49.7988 41.7742 49.8184 48.2131L47.4899 63.0399Z" fill="#2F2E41"/>
<path d="M64.6975 58.978C70.2374 58.978 74.7284 54.5028 74.7284 48.9825C74.7284 43.4621 70.2374 38.9869 64.6975 38.9869C59.1577 38.9869 54.6667 43.4621 54.6667 48.9825C54.6667 54.5028 59.1577 58.978 64.6975 58.978Z" fill="#FFB8B8"/>
<path d="M57.1356 40.6205C58.4892 38.6007 60.589 37.1959 62.9775 36.7122L64.8692 36.3269C67.2773 35.8362 69.7824 36.319 71.8333 37.6688C73.8842 39.0187 75.313 41.1252 75.8054 43.5248C74.4463 45.2886 66.3875 46.6251 61.5837 47.2078C62.929 52.0448 68.1007 56.0135 67.5412 58.9549L48.6248 62.8088L48.2381 60.9238C44.9193 52.9712 49.5487 44.8304 57.1356 40.6205Z" fill="#2F2E41"/>
<path d="M47.408 63.5779L76.9175 57.5658C77.7302 54.8648 79.2868 52.3847 74.989 48.1667C74.3231 44.9212 72.4194 42.0599 69.6787 40.1851C66.9379 38.3104 63.5741 37.5686 60.2954 38.1158C53.5221 37.5151 49.7169 42.3122 49.7366 48.7511L47.408 63.5779Z" fill="#2F2E41"/>
<path d="M64.6156 59.5159C70.1555 59.5159 74.6465 55.0408 74.6465 49.5204C74.6465 44 70.1555 39.5249 64.6156 39.5249C59.0757 39.5249 54.5848 44 54.5848 49.5204C54.5848 55.0408 59.0757 59.5159 64.6156 59.5159Z" fill="#FFB8B8"/>
<path d="M57.0538 41.1583C58.4073 39.1385 60.5072 37.7338 62.8957 37.2501L64.7873 36.8647C67.1954 36.3741 69.7005 36.8568 71.7514 38.2067C73.8024 39.5566 75.2312 41.663 75.7236 44.0627C74.3644 45.8264 66.3056 47.163 61.5018 47.7456C62.8471 52.5826 68.0188 56.5513 67.4593 59.4927L48.543 63.3466L48.1562 61.4616C44.8375 53.509 49.4669 45.3682 57.0538 41.1583Z" fill="#2F2E41"/>
<g filter="url(#filter0_d_110_4162)">
<path d="M202.505 135.438H125.996C123.876 135.435 121.843 134.595 120.344 133.101C118.846 131.608 118.002 129.583 118 127.47V27.9674C118.002 25.855 118.846 23.8299 120.345 22.3362C121.843 20.8426 123.876 20.0024 125.996 20H202.505C204.625 20.0024 206.658 20.8426 208.157 22.3362C209.656 23.8299 210.499 25.855 210.501 27.9674V127.47C210.499 129.583 209.656 131.608 208.157 133.101C206.658 134.595 204.625 135.435 202.505 135.438Z" fill="white"/>
</g>
<path d="M197.05 16.2177L197.043 16.2246C196.302 15.4745 195.301 15.0368 194.246 15.0022C193.191 14.9676 192.163 15.3388 191.375 16.0388C190.587 16.7389 190.1 17.7141 190.014 18.7625C189.928 19.8109 190.25 20.8521 190.913 21.6704L190.905 21.6774L196.384 27.8009L202.529 22.3413C203.344 21.6173 203.837 20.6003 203.9 19.5142C203.962 18.4281 203.589 17.3617 202.862 16.5497C202.136 15.7376 201.115 15.2464 200.025 15.1842C198.935 15.1219 197.865 15.4937 197.05 16.2177Z" fill="#ABB6CC"/>
<path d="M149.203 52.9795C149 53.4695 149 54.0908 149 55.3333C149 56.5758 149 57.1971 149.203 57.6871C149.474 58.3405 149.993 58.8597 150.646 59.1303C151.136 59.3333 151.757 59.3333 153 59.3333H157H173H177C178.243 59.3333 178.864 59.3333 179.354 59.1303C180.007 58.8597 180.526 58.3405 180.797 57.6871C181 57.1971 181 56.5758 181 55.3333C181 54.0908 181 53.4695 180.797 52.9795C180.526 52.3261 180.007 51.807 179.354 51.5363C178.864 51.3333 178.243 51.3333 177 51.3333H153C151.757 51.3333 151.136 51.3333 150.646 51.5363C149.993 51.807 149.474 52.3261 149.203 52.9795Z" fill="#867FFF"/>
<path d="M153.667 62L147.67 66.7972C146.357 67.8473 145.329 69.1772 144.644 70.6665H185.374C184.697 69.1804 183.679 67.8511 182.378 66.798L176.451 62H153.667Z" fill="#867FFF"/>
<path fill-rule="evenodd" clip-rule="evenodd" d="M186.333 75.0886C186.333 74.9475 186.331 74.8068 186.325 74.6665H143.677C143.67 74.8194 143.667 74.9727 143.667 75.1265V91.9998H186.333V75.0886ZM167 81.3332V77.9998C167 76.8953 166.105 75.9998 165 75.9998C163.895 75.9998 163 76.8953 163 77.9998V81.3332H159.667C158.562 81.3332 157.667 82.2286 157.667 83.3332C157.667 84.4377 158.562 85.3332 159.667 85.3332H163V88.6665C163 89.7711 163.895 90.6665 165 90.6665C166.105 90.6665 167 89.7711 167 88.6665V85.3332H170.333C171.438 85.3332 172.333 84.4377 172.333 83.3332C172.333 82.2286 171.438 81.3332 170.333 81.3332H167Z" fill="#867FFF"/>
<path d="M146.139 99.6333C145.241 98.5551 144.571 97.3191 144.156 95.9998H185.854C185.447 97.3126 184.787 98.544 183.901 99.6205L182.945 100.781C180.919 103.241 177.899 104.667 174.711 104.667H156.885C155.362 104.667 154.601 104.667 153.879 104.567C151.738 104.274 149.736 103.336 148.14 101.879C147.601 101.388 147.114 100.803 146.139 99.6333Z" fill="#867FFF"/>
<mask id="mask0_110_4162" style="mask-type:alpha" maskUnits="userSpaceOnUse" x="24" y="24" width="196" height="196">
<rect x="24" y="24" width="196" height="196" rx="98" fill="#867FFF"/>
</mask>
<g mask="url(#mask0_110_4162)">
<g filter="url(#filter1_d_110_4162)">
<path d="M202.505 278.438H125.996C123.876 278.435 121.843 277.595 120.344 276.101C118.846 274.608 118.002 272.583 118 270.47V170.967C118.002 168.855 118.846 166.83 120.345 165.336C121.843 163.843 123.876 163.002 125.996 163H202.505C204.625 163.002 206.658 163.843 208.157 165.336C209.656 166.83 210.499 168.855 210.501 170.967V270.47C210.499 272.583 209.656 274.608 208.157 276.101C206.658 277.595 204.625 278.435 202.505 278.438Z" fill="white"/>
</g>
<path d="M164.072 215.405C165.755 213.123 166.75 210.303 166.75 207.25C166.75 199.656 160.594 193.5 153 193.5C149.947 193.5 147.127 194.495 144.845 196.178L164.072 215.405Z" fill="#867FFF"/>
<path d="M161.155 218.322C158.873 220.005 156.053 221 153 221C145.406 221 139.25 214.844 139.25 207.25C139.25 204.197 140.245 201.377 141.928 199.095L161.155 218.322Z" fill="#867FFF"/>
<path d="M191.345 232.688C190.922 229.884 189.631 227.186 187.473 225.027C182.103 219.658 173.397 219.658 168.027 225.027C165.869 227.186 164.578 229.884 164.155 232.688H191.345Z" fill="#867FFF"/>
<path d="M191.345 236.812H164.155C164.578 239.616 165.869 242.314 168.027 244.473C173.397 249.842 182.103 249.842 187.473 244.473C189.631 242.314 190.922 239.616 191.345 236.812Z" fill="#867FFF"/>
<path d="M197.05 159.218L197.043 159.225C196.302 158.475 195.301 158.037 194.246 158.002C193.191 157.968 192.163 158.339 191.375 159.039C190.587 159.739 190.1 160.714 190.014 161.762C189.928 162.811 190.25 163.852 190.913 164.67L190.905 164.677L196.384 170.801L202.529 165.341C203.344 164.617 203.837 163.6 203.9 162.514C203.962 161.428 203.589 160.362 202.862 159.55C202.136 158.738 201.115 158.246 200.025 158.184C198.935 158.122 197.865 158.494 197.05 159.218Z" fill="#ABB6CC"/>
</g>
<path d="M163.247 147.929C170.885 147.929 177.076 141.759 177.076 134.149C177.076 126.538 170.885 120.369 163.247 120.369C155.61 120.369 149.419 126.538 149.419 134.149C149.419 141.759 155.61 147.929 163.247 147.929Z" fill="#00BFA6"/>
<path d="M170.046 130.318L163.411 139.464C163.168 139.8 162.758 140 162.316 140C161.924 140 161.554 139.843 161.299 139.569L157.218 135.18C156.893 134.83 156.936 134.315 157.318 134.008C157.688 133.709 158.312 133.703 158.691 133.996L162.158 136.671L168.364 129.351C168.673 128.987 169.313 128.888 169.751 129.14C170.205 129.402 170.336 129.919 170.046 130.318Z" fill="white"/>
<defs>
<filter id="filter0_d_110_4162" x="90" y="4" width="148.501" height="171.438" filterUnits="userSpaceOnUse" color-interpolation-filters="sRGB">
<feFlood flood-opacity="0" result="BackgroundImageFix"/>
<feColorMatrix in="SourceAlpha" type="matrix" values="0 0 0 0 0 0 0 0 0 0 0 0 0 0 0 0 0 0 127 0" result="hardAlpha"/>
<feOffset dy="12"/>
<feGaussianBlur stdDeviation="14"/>
<feColorMatrix type="matrix" values="0 0 0 0 0 0 0 0 0 0 0 0 0 0 0 0 0 0 0.06 0"/>
<feBlend mode="normal" in2="BackgroundImageFix" result="effect1_dropShadow_110_4162"/>
<feBlend mode="normal" in="SourceGraphic" in2="effect1_dropShadow_110_4162" result="shape"/>
</filter>
<filter id="filter1_d_110_4162" x="90" y="147" width="148.501" height="171.438" filterUnits="userSpaceOnUse" color-interpolation-filters="sRGB">
<feFlood flood-opacity="0" result="BackgroundImageFix"/>
<feColorMatrix in="SourceAlpha" type="matrix" values="0 0 0 0 0 0 0 0 0 0 0 0 0 0 0 0 0 0 127 0" result="hardAlpha"/>
<feOffset dy="12"/>
<feGaussianBlur stdDeviation="14"/>
<feColorMatrix type="matrix" values="0 0 0 0 0 0 0 0 0 0 0 0 0 0 0 0 0 0 0.06 0"/>
<feBlend mode="normal" in2="BackgroundImageFix" result="effect1_dropShadow_110_4162"/>
<feBlend mode="normal" in="SourceGraphic" in2="effect1_dropShadow_110_4162" result="shape"/>
</filter>
</defs>
</svg>
