<svg width="80" height="80" viewBox="0 0 80 80" fill="none" xmlns="http://www.w3.org/2000/svg">
<rect width="80" height="80" rx="40" fill="#00C293" fill-opacity="0.12"/>
<path d="M52 32L53.8974 32.6325C55.8774 33.2925 56.8675 33.6225 57.4337 34.4081C58 35.1938 58 36.2374 58 38.3246V49.658C58 52.2398 58 53.5307 57.3206 54.3599C57.0898 54.6416 56.8097 54.8789 56.494 55.0602C55.5643 55.594 54.2909 55.3818 51.7443 54.9574C49.2314 54.5386 47.975 54.3292 46.7297 54.4334C46.2927 54.4699 45.8585 54.5352 45.43 54.6288C44.2092 54.8954 43.0599 55.4701 40.7612 56.6194C37.7618 58.1191 36.2621 58.869 34.6657 59.1001C34.1848 59.1697 33.6996 59.2042 33.2138 59.2033C31.6007 59.2002 30.0237 58.6746 26.8698 57.6233L26.1026 57.3675C24.1226 56.7075 23.1325 56.3775 22.5663 55.5919C22 54.8062 22 53.7626 22 51.6754V41.816C22 38.4982 22 36.8393 22.9768 35.9472C23.1478 35.791 23.3362 35.6552 23.5383 35.5424C24.6936 34.8979 26.2674 35.4225 29.4149 36.4716" stroke="#00C293" stroke-width="3"/>
<path d="M28 31.4006C28 25.1042 33.3726 20 40 20C46.6274 20 52 25.1042 52 31.4006C52 37.6477 48.17 44.9374 42.1944 47.5442C40.8014 48.1519 39.1986 48.1519 37.8056 47.5442C31.83 44.9374 28 37.6477 28 31.4006Z" stroke="#00C293" stroke-width="3"/>
<circle cx="40" cy="32" r="4" stroke="#00C293" stroke-width="3"/>
</svg>
