<svg width="40" height="40" viewBox="0 0 40 40" fill="none" xmlns="http://www.w3.org/2000/svg">
<g clip-path="url(#clip0_1_1134)">
<rect width="40" height="40" rx="20" fill="#ABB6CC"/>
<path fill-rule="evenodd" clip-rule="evenodd" d="M19.9858 20.4093C16.5601 20.4093 13.7151 17.5943 13.7151 14.2621C13.7151 10.8151 16.5601 8 19.9858 8C23.5275 8 26.2565 10.8151 26.2565 14.2621C26.2565 17.5943 23.5275 20.4093 19.9858 20.4093ZM19.9858 11.6194C18.5343 11.6194 17.4311 12.8258 17.4311 14.2621C17.4311 15.6984 18.5343 16.7899 19.9858 16.7899C21.4954 16.7899 22.5405 15.6984 22.5405 14.2621C22.5405 12.8258 21.4954 11.6194 19.9858 11.6194ZM22.4825 25.5225L26.0242 28.912C26.721 29.6589 26.721 30.7504 26.0242 31.4399C25.2694 32.1867 24.1082 32.1867 23.5275 31.4399L19.9858 27.9928L16.5601 31.4399C16.2118 31.7846 15.7473 31.9569 15.2247 31.9569C14.8183 31.9569 14.3538 31.7846 13.9474 31.4399C13.2506 30.7504 13.2506 29.6589 13.9474 28.912L17.5472 25.5225C16.2118 25.1203 14.9925 24.6032 13.8313 23.9138C12.9603 23.4542 12.7861 22.3052 13.2506 21.4435C13.8313 20.5817 14.8764 20.3519 15.8053 20.9264C18.3601 22.4776 21.6115 22.4776 24.1663 20.9264C25.0952 20.3519 26.1984 20.5817 26.721 21.4435C27.2435 22.3052 27.0112 23.4542 26.1984 23.9138C25.0952 24.6032 23.8179 25.1203 22.4825 25.5225Z" fill="white"/>
</g>
<defs>
<clipPath id="clip0_1_1134">
<rect width="40" height="40" fill="white"/>
</clipPath>
</defs>
</svg>
