<svg width="40" height="40" viewBox="0 0 40 40" fill="none" xmlns="http://www.w3.org/2000/svg">
<g clip-path="url(#clip0_1_1135)">
<rect width="40" height="40" rx="20" fill="#ABB6CC"/>
<path d="M8.48236 19.3078C15.2523 16.5433 24.0125 13.1729 25.2221 12.7063C28.394 11.4854 29.3674 11.7192 28.8821 14.4234C28.5335 16.3671 27.5282 22.8014 26.7262 26.8066C26.2507 29.1818 25.1834 29.4632 23.5059 28.4356C22.6992 27.9412 18.6266 25.441 17.7423 24.8539C16.9355 24.319 15.8227 23.6753 17.2183 22.4077C17.7152 21.9564 20.9704 19.0705 23.5069 16.8247C23.8391 16.5299 23.4217 16.0453 23.0381 16.2817C19.6193 18.3863 14.8794 21.3073 14.276 21.6876C13.3646 22.262 12.4891 22.5254 10.9182 22.1065C9.73077 21.79 8.57146 21.4125 8.12013 21.2686C6.38165 20.7148 6.79424 19.9974 8.48236 19.3078Z" fill="white"/>
</g>
<defs>
<clipPath id="clip0_1_1135">
<rect width="40" height="40" fill="white"/>
</clipPath>
</defs>
</svg>
