<svg width="244" height="244" viewBox="0 0 244 244" fill="none" xmlns="http://www.w3.org/2000/svg">
<rect x="24" y="24" width="196" height="196" rx="98" fill="#E0F7F2"/>
<g filter="url(#filter0_d_110_4057)">
<path d="M69.201 163.923H156.372C163.699 163.923 169.66 157.951 169.66 150.61V63.2786C169.66 55.9378 163.699 49.9658 156.372 49.9658H69.201C61.8737 49.9658 55.9127 55.9378 55.9127 63.2786V150.61C55.9127 157.951 61.8737 163.923 69.201 163.923Z" fill="white"/>
</g>
<path d="M146.974 61.1775C151.1 61.1775 154.456 64.54 154.456 68.6733V80.4059C154.456 84.5393 151.1 87.9018 146.974 87.9018H135.263C131.137 87.9018 127.781 84.5393 127.781 80.4059V68.6733C127.781 64.54 131.137 61.1775 135.263 61.1775H146.974Z" fill="#F7F7FA"/>
<path d="M146.974 94.2063C151.1 94.2063 154.456 97.5688 154.456 101.702V113.435C154.456 117.568 151.1 120.931 146.974 120.931H135.263C131.137 120.931 127.781 117.568 127.781 113.435V101.702C127.781 97.5688 131.137 94.2063 135.263 94.2063H146.974Z" fill="#F7F7FA"/>
<path d="M146.974 127.235C151.1 127.235 154.456 130.598 154.456 134.731V146.464C154.456 150.597 151.1 153.959 146.974 153.959H135.263C131.137 153.959 127.781 150.597 127.781 146.464V134.731C127.781 130.598 131.137 127.235 135.263 127.235H146.974Z" fill="#F7F7FA"/>
<path d="M133.208 31C138.406 31 142.635 35.2368 142.635 40.445V55.2284C142.635 60.4365 138.406 64.6734 133.208 64.6734H118.452C113.253 64.6734 109.024 60.4365 109.024 55.2284V40.445C109.024 35.2368 113.253 31 118.452 31H133.208Z" fill="#867FFF"/>
<path d="M131.782 39.2259C131.481 38.9247 130.992 38.9247 130.691 39.2259C130.39 39.5272 130.39 40.0157 130.691 40.3169L131.641 41.2674L129.943 42.9662L129.075 42.0987C128.3 41.3235 127.912 40.9359 127.472 40.7754C127.004 40.6053 126.492 40.6053 126.024 40.7754C125.584 40.9359 125.196 41.3235 124.421 42.0987L124.301 42.2183L131.782 49.6988L131.901 49.5792C132.676 48.804 133.064 48.4164 133.224 47.9756C133.395 47.5082 133.395 46.9958 133.224 46.5283C133.064 46.0875 132.676 45.6999 131.901 44.9247L131.034 44.0572L132.732 42.3584L133.683 43.3091C133.984 43.6104 134.473 43.6104 134.774 43.3091C135.075 43.0079 135.075 42.5194 134.774 42.2182L131.782 39.2259Z" fill="white"/>
<path d="M120.016 46.5039L123.21 43.3092L130.691 50.7897L129.538 51.9429L126.57 48.9751C126.269 48.6738 125.78 48.6738 125.479 48.9751C125.178 49.2763 125.178 49.7648 125.479 50.066L128.447 53.0339L127.854 53.626L126.162 51.933C125.86 51.6318 125.372 51.6318 125.071 51.933C124.769 52.2343 124.769 52.7227 125.071 53.024L126.692 54.6453C124.846 55.8795 122.396 55.8278 120.601 54.4903L118.317 56.7741C118.016 57.0753 117.527 57.0753 117.226 56.7741C116.925 56.4728 116.925 55.9843 117.226 55.6831L119.51 53.3993C117.967 51.3281 118.135 48.3843 120.016 46.5039Z" fill="white"/>
<path d="M34.4268 60.4475C38.6028 60.4475 42 63.8447 42 68.0207V79.8743C42 84.0503 38.6028 87.4475 34.4268 87.4475H22.5732C18.3972 87.4475 15 84.0503 15 79.8743V68.0207C15 63.8447 18.3972 60.4475 22.5732 60.4475H34.4268Z" fill="#867FFF"/>
<path d="M22.6604 68.6604C20.891 70.4298 20.891 73.2985 22.6604 75.0679L24.3693 76.7768L24.6997 76.7132C24.6995 76.7132 24.6997 76.7132 24.7003 76.713L24.7096 76.711C24.7191 76.7089 24.7355 76.7051 24.7584 76.6994C24.804 76.6879 24.8752 76.6685 24.969 76.6385C25.1564 76.5787 25.4336 76.4768 25.7753 76.3122C26.4581 75.9831 27.4004 75.4024 28.4012 74.4015C29.4021 73.4007 29.9829 72.4583 30.312 71.7754C30.4767 71.4337 30.5786 71.1565 30.6385 70.969C30.6684 70.8752 30.6879 70.8039 30.6994 70.7583C30.7052 70.7355 30.7089 70.7191 30.7111 70.7095L30.713 70.7003C30.7132 70.6997 30.7132 70.6994 30.7132 70.6996L30.7769 70.3693L29.0679 68.6604C27.2985 66.891 24.4298 66.891 22.6604 68.6604Z" fill="white"/>
<path d="M31.6124 71.2049C31.6058 71.2266 31.5987 71.2494 31.5911 71.2732C31.5181 71.5017 31.3993 71.8226 31.2129 72.2096C30.8396 72.984 30.1959 74.0211 29.1083 75.1086C28.0208 76.1962 26.9838 76.8398 26.2094 77.213C25.8225 77.3995 25.5016 77.5182 25.2731 77.5911C25.2494 77.5987 25.2266 77.6058 25.2049 77.6124L26.9321 79.3396C28.7015 81.109 31.5702 81.109 33.3396 79.3396C35.109 77.5702 35.109 74.7015 33.3396 72.9321L31.6124 71.2049Z" fill="white"/>
<path d="M84.6268 72.3135C89.8254 72.3135 94.0544 76.5504 94.0544 81.7585V96.542C94.0544 101.75 89.8253 105.987 84.6268 105.987H69.8707C64.6721 105.987 60.4431 101.75 60.4431 96.542V81.7585C60.4431 76.5504 64.6721 72.3135 69.8707 72.3135H84.6268Z" fill="#867FFF"/>
<path d="M77.0261 88.9654C77.6382 88.1358 78 87.1101 78 86C78 83.2386 75.7614 81 73 81C71.8899 81 70.8642 81.3618 70.0346 81.9739L77.0261 88.9654Z" fill="white"/>
<path d="M75.9654 90.0261C75.1358 90.6382 74.1101 91 73 91C70.2386 91 68 88.7614 68 86C68 84.8899 68.3618 83.8642 68.9739 83.0346L75.9654 90.0261Z" fill="white"/>
<path d="M86.9438 95.25C86.7899 94.2305 86.3205 93.2495 85.5355 92.4645C83.5829 90.5118 80.4171 90.5118 78.4645 92.4645C77.6795 93.2495 77.2101 94.2305 77.0562 95.25H86.9438Z" fill="white"/>
<path d="M86.9438 96.75H77.0562C77.2101 97.7695 77.6795 98.7505 78.4645 99.5355C80.4171 101.488 83.5829 101.488 85.5355 99.5355C86.3205 98.7505 86.7899 97.7695 86.9438 96.75Z" fill="white"/>
<path d="M105.747 221.115L108.745 221.089L110.072 209.235L105.648 209.273L105.747 221.115Z" fill="#FFB6B6"/>
<path d="M115.349 225.89C115.356 226.63 114.761 227.238 114.021 227.245L108.06 227.295L107.017 225.176L106.634 227.306L104.385 227.326L104.953 219.73L105.735 219.678L108.927 219.458L109.956 219.388L109.974 221.538L114.762 224.791C115.126 225.039 115.346 225.45 115.349 225.89Z" fill="#2F2E41"/>
<path d="M90.4952 221.115L93.493 221.089L94.82 209.235L90.3956 209.273L90.4952 221.115Z" fill="#FFB6B6"/>
<path d="M100.097 225.89C100.104 226.63 99.5091 227.238 98.7686 227.245L92.8083 227.295L91.7649 225.176L91.3817 227.306L89.1328 227.326L89.7007 219.73L90.4831 219.678L93.6745 219.458L94.7041 219.388L94.7222 221.538L99.5101 224.791C99.8743 225.039 100.094 225.45 100.097 225.89Z" fill="#2F2E41"/>
<path d="M117.511 125.274L105.36 125.658L93.8478 128.221C93.8478 128.221 94.999 129.631 91.1617 133.475C91.1617 133.475 86.0454 142.445 89.6268 151.159L91.1617 186.015C91.1617 186.015 86.6865 210.585 90.1058 218.405L94.625 218.688L102.272 186.298L105.999 151.416L107.79 185.758C107.79 185.758 100.939 209.331 105.265 218.688L110.16 218.405L118.534 185.758C118.534 185.758 122.116 148.084 121.604 140.908C121.092 133.732 117.511 125.274 117.511 125.274Z" fill="#2F2E41"/>
<path d="M76.7041 70.1971C78.3652 70.628 79.3631 72.3264 78.933 73.9906C78.7359 74.7532 78.2715 75.3736 77.6681 75.7834L77.6683 75.7876L77.904 81.5059L73.5361 83.531L73.1874 74.7315L73.2178 74.7324C72.8391 74.0565 72.7082 73.2398 72.9175 72.4301C73.3476 70.766 75.0429 69.7662 76.7041 70.1971Z" fill="#FFB6B6"/>
<path d="M101.116 90.6055C102.034 89.6943 102.566 88.4589 102.586 87.1155C102.613 85.3133 101.711 83.6776 100.175 82.7401C98.4052 81.6604 96.1923 81.7697 94.5372 83.0181L80.8213 93.3642L78.3773 78.4598L73.1303 80.152L74.3822 99.5597C74.4699 100.917 75.2356 102.113 76.4309 102.759C77.6262 103.404 79.0442 103.388 80.2245 102.716L100.046 91.4174C100.444 91.1904 100.803 90.9168 101.116 90.6055Z" fill="#00BFA6"/>
<path d="M122.031 61.8603C121.154 63.3379 121.639 65.248 123.114 66.1264C123.789 66.5289 124.555 66.6419 125.272 66.5074L125.275 66.5105L129.126 70.7375L133.651 69.0947L127.714 62.5999L127.693 62.622C127.487 61.8748 127.006 61.2026 126.289 60.7752C124.814 59.8968 122.907 60.3826 122.031 61.8603Z" fill="#FFB6B6"/>
<path d="M120.367 93.3942L142.383 87.4362C143.694 87.0814 144.712 86.0927 145.107 84.7911C145.503 83.4896 145.206 82.1002 144.314 81.0742L131.564 66.4089L126.649 68.9082L135.388 81.2164L118.376 83.5437C116.324 83.8246 114.675 85.3079 114.178 87.3228C113.745 89.0724 114.255 90.8699 115.54 92.1308C116.498 93.0707 117.744 93.5726 119.036 93.5724C119.478 93.5724 119.925 93.5138 120.367 93.3942Z" fill="#00BFA6"/>
<path d="M88.9792 130.402L119.766 131.817C120.612 130.53 120.383 128.596 119.198 126.174C114.727 117.028 118.123 99.7266 120.407 90.7176C121.048 88.1899 119.328 85.677 116.737 85.4175L113.835 85.1267L111.151 76.9206H101.754L97.8552 81.3829L91.2388 85.4097C92.4431 97.8376 97.5746 115.387 90.2642 124.188C88.6653 126.113 88.2119 128.194 88.9792 130.402Z" fill="#00BFA6"/>
<path d="M103.648 77.1102C98.5926 77.1102 94.4945 73.0044 94.4945 67.9398C94.4945 62.8751 98.5926 58.7694 103.648 58.7694C108.703 58.7694 112.801 62.8751 112.801 67.9398C112.801 73.0044 108.703 77.1102 103.648 77.1102Z" fill="#FFB6B6"/>
<path d="M115.643 62.0698C116.916 57.4181 103.036 53.4291 100.339 57.1752C99.9639 56.6426 98.5778 56.3191 97.9418 56.4825C97.3059 56.6458 96.771 57.0543 96.2492 57.4496C95.5317 58.0018 94.7881 58.5736 94.3478 59.3676C93.9042 60.1583 93.8357 61.2366 94.4326 61.9227C97.9055 64.4684 98.7365 67.368 99.4475 67.5118C99.9432 67.6131 100.361 67.6948 100.719 67.7536C101.039 67.2863 98.8541 64.6994 98.7954 64.1341C99.278 64.4543 99.1017 65.0177 99.0044 65.5935C98.6803 67.5107 91.3795 82.3524 95.561 77.9789C95.9752 78.224 96.4873 78.4527 97.0776 78.6618C98.0788 77.149 98.9007 75.365 99.4421 73.4992L99.4459 73.5337C99.6323 75.1551 100.815 76.4855 102.38 76.9396C108.657 78.7614 113.734 76.0882 115.48 71.2675C114.841 69.967 114.562 70.1083 114.62 70.0696C115.418 69.5307 116.515 69.8831 116.858 70.7841C116.959 71.0497 117.051 71.2765 117.131 71.4472C118.041 68.1863 119.123 68.6569 115.643 62.0698Z" fill="#2F2E41"/>
<path d="M200.588 140.237C191.442 140.237 184 132.781 184 123.618C184 114.456 191.442 107 200.588 107C209.734 107 217.176 114.456 217.176 123.618C217.176 132.781 209.734 140.237 200.588 140.237ZM200.588 113.647C195.1 113.647 190.635 118.12 190.635 123.618C190.635 129.117 195.1 133.59 200.588 133.59C206.076 133.59 210.54 129.117 210.54 123.618C210.54 118.12 206.076 113.647 200.588 113.647Z" fill="#867FFF"/>
<path d="M226.109 151.531C225.296 151.531 224.481 151.234 223.841 150.632L208.273 136.014C206.935 134.76 206.867 132.656 208.12 131.317C209.371 129.974 211.47 129.907 212.808 131.165L228.377 145.782C229.715 147.037 229.783 149.14 228.529 150.479C227.877 151.178 226.994 151.531 226.109 151.531Z" fill="#867FFF"/>
<path d="M113.907 57.6532C112.501 55.5557 110.321 54.0969 107.84 53.5946L105.876 53.1944C103.375 52.6849 100.774 53.1862 98.6441 54.588C96.5962 56.1154 97.1154 57.1538 94 60.2692C95.4114 62.1008 96.7999 65.8949 101.788 66.5C99.1923 70.1346 99.1923 77.4038 97.6346 80C97.6346 80 102.019 79.1857 110.615 78.9615C119.212 78.7373 121 80 121 80C121 80 120.58 78.9615 120.481 76.8846C119.962 65.9808 119.442 64.4231 113.907 57.6532Z" fill="#2F2E41"/>
<path d="M206.803 42.0614H179.986C179.456 42.0497 178.95 41.8306 178.579 41.451C178.208 41.0715 178 40.5616 178 40.0307C178 39.4998 178.208 38.9899 178.579 38.6104C178.95 38.2308 179.456 38.0117 179.986 38H206.803C207.334 38.0117 207.839 38.2308 208.21 38.6104C208.582 38.9899 208.789 39.4998 208.789 40.0307C208.789 40.5616 208.582 41.0715 208.21 41.451C207.839 41.8306 207.334 42.0497 206.803 42.0614Z" fill="#ABB6CC"/>
<path d="M206.803 49.6766H179.986C179.456 49.6649 178.95 49.4458 178.579 49.0663C178.208 48.6867 178 48.1769 178 47.6459C178 47.115 178.208 46.6052 178.579 46.2256C178.95 45.846 179.456 45.627 179.986 45.6152H206.803C207.334 45.627 207.839 45.846 208.21 46.2256C208.582 46.6052 208.789 47.115 208.789 47.6459C208.789 48.1769 208.582 48.6867 208.21 49.0663C207.839 49.4458 207.334 49.6649 206.803 49.6766Z" fill="#ABB6CC"/>
<path d="M206.803 57.2919H179.986C179.456 57.2801 178.95 57.061 178.579 56.6815C178.208 56.3019 178 55.7921 178 55.2612C178 54.7302 178.208 54.2204 178.579 53.8408C178.95 53.4613 179.456 53.2422 179.986 53.2305H206.803C207.334 53.2422 207.839 53.4613 208.21 53.8408C208.582 54.2204 208.789 54.7302 208.789 55.2612C208.789 55.7921 208.582 56.3019 208.21 56.6815C207.839 57.061 207.334 57.2801 206.803 57.2919Z" fill="#ABB6CC"/>
<defs>
<filter id="filter0_d_110_4057" x="27.9127" y="33.9658" width="169.747" height="169.957" filterUnits="userSpaceOnUse" color-interpolation-filters="sRGB">
<feFlood flood-opacity="0" result="BackgroundImageFix"/>
<feColorMatrix in="SourceAlpha" type="matrix" values="0 0 0 0 0 0 0 0 0 0 0 0 0 0 0 0 0 0 127 0" result="hardAlpha"/>
<feOffset dy="12"/>
<feGaussianBlur stdDeviation="14"/>
<feColorMatrix type="matrix" values="0 0 0 0 0 0 0 0 0 0 0 0 0 0 0 0 0 0 0.06 0"/>
<feBlend mode="normal" in2="BackgroundImageFix" result="effect1_dropShadow_110_4057"/>
<feBlend mode="normal" in="SourceGraphic" in2="effect1_dropShadow_110_4057" result="shape"/>
</filter>
</defs>
</svg>
