<svg width="80" height="80" viewBox="0 0 80 80" fill="none" xmlns="http://www.w3.org/2000/svg">
<rect width="80" height="80" rx="40" fill="#00C293" fill-opacity="0.12"/>
<path d="M26 40C26 34.3822 26 31.5732 27.3482 29.5554C27.9319 28.6819 28.6819 27.9319 29.5554 27.3482C31.5732 26 34.3822 26 40 26C45.6178 26 48.4268 26 50.4446 27.3482C51.3181 27.9319 52.0681 28.6819 52.6518 29.5554C54 31.5732 54 34.3822 54 40C54 45.6178 54 48.4268 52.6518 50.4446C52.0681 51.3181 51.3181 52.0681 50.4446 52.6518C48.4268 54 45.6178 54 40 54C34.3822 54 31.5732 54 29.5554 52.6518C28.6819 52.0681 27.9319 51.3181 27.3482 50.4446C26 48.4268 26 45.6178 26 40Z" stroke="#00C293" stroke-width="3"/>
<path d="M40 34V40.1538L44 44" stroke="#00C293" stroke-width="3" stroke-linecap="round" stroke-linejoin="round"/>
<path d="M49.5556 27L48.6961 23.1323C48.3624 21.6306 48.1955 20.8798 47.6471 20.4399C47.0987 20 46.3296 20 44.7913 20H35.2087C33.6704 20 32.9013 20 32.3529 20.4399C31.8045 20.8798 31.6376 21.6306 31.304 23.1323L30.4445 27" stroke="#00C293" stroke-width="3"/>
<path d="M49.5554 27L49.392 26.2646C48.7246 23.2613 48.3909 21.7597 47.2941 20.8798C46.1973 20 44.659 20 41.5825 20H38.4173C35.3407 20 33.8025 20 32.7057 20.8798C31.6089 21.7597 31.2752 23.2613 30.6078 26.2646L30.4443 27" stroke="#00C293" stroke-width="3"/>
<path d="M49.5557 53L49.3923 53.7354C48.7249 56.7387 48.3912 58.2403 47.2944 59.1202C46.1975 60 44.6593 60 41.5828 60H38.4175C35.341 60 33.8027 60 32.7059 59.1202C31.6091 58.2403 31.2754 56.7387 30.608 53.7354L30.4446 53" stroke="#00C293" stroke-width="3"/>
</svg>
