<svg width="32" height="32" viewBox="0 0 32 32" fill="none" xmlns="http://www.w3.org/2000/svg">
<path d="M4.99921 26.1932C6.59721 28 9.57136 28 15.5197 28H16.4803C22.4286 28 25.4028 28 27.0008 26.1932M4.99921 26.1932C3.40121 24.3864 3.94931 21.6433 5.04552 16.1571C5.82508 12.2556 6.21486 10.3049 7.69467 9.15245M4.99921 26.1932C4.99921 26.1932 4.99921 26.1932 4.99921 26.1932ZM27.0008 26.1932C28.5988 24.3864 28.0507 21.6433 26.9545 16.1571C26.1749 12.2556 25.7851 10.3049 24.3053 9.15245M27.0008 26.1932C27.0008 26.1932 27.0008 26.1932 27.0008 26.1932ZM24.3053 9.15245C22.8255 8 20.7105 8 16.4803 8H15.5197C11.2895 8 9.17448 8 7.69467 9.15245M24.3053 9.15245C24.3053 9.15245 24.3053 9.15245 24.3053 9.15245ZM7.69467 9.15245C7.69467 9.15245 7.69467 9.15245 7.69467 9.15245Z" stroke="#00C293" stroke-width="2"/>
<path d="M13.3333 18.2667C14.0275 18.8915 14.4168 19.2419 15.111 19.8667L18.6666 15.8667" stroke="#00C293" stroke-width="2" stroke-linecap="round" stroke-linejoin="round"/>
<path d="M12 8.00008V6.66675C12 4.45761 13.7909 2.66675 16 2.66675C18.2091 2.66675 20 4.45761 20 6.66675V8.00008" stroke="#00C293" stroke-width="2" stroke-linecap="round"/>
</svg>
