<svg width="32" height="32" viewBox="0 0 32 32" fill="none" xmlns="http://www.w3.org/2000/svg">
<path d="M10 24C11.1046 24 12 24.8954 12 26C12 27.1046 11.1046 28 10 28C8.89543 28 8 27.1046 8 26C8 24.8954 8.89543 24 10 24Z" stroke="#00C293" stroke-width="2"/>
<path d="M22 24.0001C23.1046 24.0001 24 24.8955 24 26.0001C24 27.1047 23.1046 28.0001 22 28.0001C20.8954 28.0001 20 27.1047 20 26.0001C20 24.8955 20.8954 24.0001 22 24.0001Z" stroke="#00C293" stroke-width="2"/>
<path d="M3.0149 4.12245L3.34658 3.17905L3.34658 3.17905L3.0149 4.12245ZM2.9983 3.05661C2.47728 2.87343 1.90641 3.1473 1.72323 3.66832C1.54005 4.18934 1.81393 4.76021 2.33495 4.94339L2.9983 3.05661ZM6.11441 5.76398L6.94005 5.19977V5.19977L6.11441 5.76398ZM7.85025 19.4482L7.12456 20.1363L7.12456 20.1363L7.85025 19.4482ZM27.5437 13.177L28.5231 13.3789L28.5243 13.3727L27.5437 13.177ZM26.8773 16.41L27.8567 16.6118V16.6118L26.8773 16.41ZM27.646 8.92944L26.8534 9.53918L27.646 8.92944ZM25.5114 20.0672L24.8797 19.292L24.8797 19.292L25.5114 20.0672ZM7.61073 13.0133V9.38448H5.61073V13.0133H7.61073ZM3.34658 3.17905L2.9983 3.05661L2.33495 4.94339L2.68323 5.06584L3.34658 3.17905ZM14.5833 21.6667H21.6538V19.6667H14.5833V21.6667ZM7.61073 9.38448C7.61073 8.4416 7.61209 7.65479 7.54288 7.01543C7.47124 6.35358 7.31602 5.74996 6.94005 5.19977L5.28877 6.32818C5.40912 6.50429 5.50206 6.74619 5.5545 7.23065C5.60937 7.73759 5.61073 8.39789 5.61073 9.38448H7.61073ZM2.68323 5.06584C3.57337 5.3788 4.15838 5.5862 4.58883 5.79741C4.99314 5.99579 5.17136 6.15636 5.28877 6.32818L6.94005 5.19977C6.56114 4.64529 6.05734 4.29018 5.46983 4.0019C4.90848 3.72646 4.19189 3.47625 3.34658 3.17905L2.68323 5.06584ZM5.61073 13.0133C5.61073 14.95 5.6289 16.3465 5.81164 17.4135C6.00674 18.5526 6.39625 19.3681 7.12456 20.1363L8.57594 18.7602C8.14905 18.31 7.9188 17.8691 7.78294 17.0758C7.63472 16.2105 7.61073 14.9987 7.61073 13.0133H5.61073ZM14.5833 19.6667C12.6942 19.6667 11.3835 19.6643 10.3959 19.5243C9.44282 19.3891 8.93933 19.1435 8.57594 18.7602L7.12456 20.1363C7.91638 20.9714 8.92012 21.335 10.1151 21.5045C11.2756 21.669 12.7538 21.6667 14.5833 21.6667V19.6667ZM6.61073 9.16H22.7851V7.16H6.61073V9.16ZM26.5642 12.9751L25.8979 16.2081L27.8567 16.6118L28.5231 13.3789L26.5642 12.9751ZM22.7851 9.16C23.9269 9.16 24.9318 9.16134 25.7249 9.24999C26.119 9.29404 26.4139 9.35525 26.6212 9.42806C26.8364 9.50369 26.8707 9.56169 26.8534 9.53918L28.4386 8.31971C28.1253 7.91247 27.6848 7.68194 27.2842 7.54116C26.8755 7.39757 26.4134 7.3145 25.9471 7.26237C25.0194 7.15866 23.8898 7.16 22.7851 7.16V9.16ZM28.5243 13.3727C28.75 12.2422 28.9415 11.2937 28.9884 10.5338C29.0367 9.75224 28.9477 8.98156 28.4386 8.31971L26.8534 9.53918C26.9361 9.64678 27.0274 9.8405 26.9922 10.4106C26.9557 11.0025 26.8002 11.793 26.563 12.9813L28.5243 13.3727ZM21.6538 21.6667C22.6694 21.6667 23.5217 21.6684 24.2087 21.5843C24.9231 21.4969 25.5745 21.3058 26.1432 20.8424L24.8797 19.292C24.7128 19.4281 24.4761 19.5367 23.9658 19.5991C23.4283 19.6649 22.7195 19.6667 21.6538 19.6667V21.6667ZM25.8979 16.2081C25.6828 17.2519 25.538 17.9457 25.365 18.4589C25.2009 18.946 25.0467 19.1559 24.8797 19.292L26.1432 20.8424C26.7118 20.379 27.0305 19.7795 27.2603 19.0976C27.4814 18.4416 27.6517 17.6065 27.8567 16.6118L25.8979 16.2081Z" fill="#00C293"/>
</svg>
