<svg width="21" height="21" viewBox="0 0 21 21" fill="none" xmlns="http://www.w3.org/2000/svg">
<path fill-rule="evenodd" clip-rule="evenodd" d="M17.7695 3.2227C15.8142 1.27448 13.2138 0.201094 10.4435 0.199951C4.73503 0.199951 0.0891669 4.82346 0.0868708 10.5061C0.0861054 12.3227 0.562938 14.096 1.46928 15.659L0 21L5.49021 19.5667C7.00298 20.3879 8.70608 20.8207 10.4393 20.8212H10.4436C16.1515 20.8212 20.7978 16.1973 20.8 10.5144C20.8011 7.76026 19.7249 5.1708 17.7695 3.2227ZM10.4435 19.0805H10.4399C8.89539 19.0799 7.38057 18.6668 6.05876 17.8864L5.74457 17.7007L2.4866 18.5513L3.3562 15.39L3.15146 15.0659C2.28977 13.7019 1.83475 12.1254 1.83551 10.5068C1.8373 5.78348 5.6989 1.94073 10.4469 1.94073C12.7461 1.94149 14.9075 2.83372 16.5326 4.45301C18.1578 6.07229 19.0523 8.22466 19.0515 10.5138C19.0494 15.2374 15.1881 19.0805 10.4435 19.0805ZM15.1651 12.6645C14.9064 12.5355 13.6341 11.9126 13.3968 11.8266C13.1598 11.7406 12.9871 11.6978 12.8148 11.9556C12.6422 12.2133 12.1463 12.7934 11.9953 12.9652C11.8443 13.1371 11.6935 13.1587 11.4347 13.0297C11.1758 12.9008 10.3421 12.6288 9.3536 11.7514C8.58439 11.0685 8.06508 10.2252 7.91404 9.96747C7.76326 9.7095 7.91277 9.58356 8.02757 9.44188C8.3077 9.09568 8.58821 8.73272 8.67445 8.56096C8.76081 8.38906 8.71756 8.23862 8.65276 8.10977C8.58821 7.98091 8.07069 6.71328 7.85511 6.19747C7.64488 5.6955 7.43172 5.76329 7.27278 5.75542C7.122 5.74793 6.94941 5.74641 6.77681 5.74641C6.60435 5.74641 6.32396 5.81077 6.08669 6.06874C5.84955 6.32658 5.18112 6.94954 5.18112 8.21717C5.18112 9.48479 6.10838 10.7094 6.23773 10.8813C6.36708 11.0532 8.06253 13.6544 10.6583 14.7699C11.2757 15.0354 11.7577 15.1937 12.1336 15.3125C12.7535 15.5085 13.3175 15.4808 13.7635 15.4145C14.2607 15.3405 15.2944 14.7914 15.5102 14.1899C15.7258 13.5883 15.7258 13.0727 15.661 12.9652C15.5964 12.8578 15.4238 12.7934 15.1651 12.6645Z" fill="white"/>
</svg>
