<svg width="24" height="24" viewBox="0 0 24 24" fill="none" xmlns="http://www.w3.org/2000/svg">
<path d="M3 10C3 6.22876 3 4.34315 4.17157 3.17157C5.34315 2 7.22876 2 11 2H13C16.7712 2 18.6569 2 19.8284 3.17157C21 4.34315 21 6.22876 21 10V14C21 17.7712 21 19.6569 19.8284 20.8284C18.6569 22 16.7712 22 13 22H11C7.22876 22 5.34315 22 4.17157 20.8284C3 19.6569 3 17.7712 3 14V10Z" stroke="#ABB6CC" stroke-width="2"/>
<path d="M12 8L12 10M12 10L12 12M12 10H9.99998M12 10L14 10" stroke="#EB135B" stroke-width="2" stroke-linecap="round"/>
<path d="M8 18L16 18" stroke="#ABB6CC" stroke-width="2" stroke-linecap="round"/>
</svg>
