<svg width="32" height="32" viewBox="0 0 32 32" fill="none" xmlns="http://www.w3.org/2000/svg">
<path d="M12 6H10.6667C7.52397 6 5.95262 6 4.97631 6.97631C4 7.95262 4 9.52397 4 12.6667V19.3333C4 22.476 4 24.0474 4.97631 25.0237C5.95262 26 7.52397 26 10.6667 26H12" stroke="#00C293" stroke-width="2"/>
<path d="M12 8.63529C12 5.57687 12 4.04766 12.943 3.21168C13.886 2.37569 15.3274 2.62709 18.2101 3.12989L21.3152 3.67146C24.5078 4.22831 26.1042 4.50674 27.0521 5.67776C28 6.84877 28 8.54237 28 11.9296V20.0706C28 23.4578 28 25.1514 27.0521 26.3224C26.1042 27.4934 24.5078 27.7718 21.3152 28.3287L18.2101 28.8703C15.3274 29.3731 13.886 29.6245 12.943 28.7885C12 27.9525 12 26.4233 12 23.3649V8.63529Z" stroke="#00C293" stroke-width="2"/>
<path d="M16 14.6667V17.3334" stroke="#00C293" stroke-width="2" stroke-linecap="round"/>
</svg>
