<svg width="22" height="23" viewBox="0 0 22 23" fill="none" xmlns="http://www.w3.org/2000/svg">
<path d="M10.8511 4.27539C10.4871 4.27539 10.4871 4.84267 10.8511 4.84739C13.6752 4.86914 16.001 6.83759 16.0266 10.4483C16.0266 10.8293 16.5844 10.8246 16.5797 10.4436H16.5787C16.5485 6.553 14.009 4.29714 10.8511 4.27539Z" fill="white"/>
<path d="M14.5681 9.84965C14.5596 10.2259 15.1165 10.2439 15.1212 9.86289C15.1675 7.71764 13.8448 5.95057 11.3592 5.76432C10.9952 5.73785 10.9574 6.30985 11.3204 6.33632C13.4761 6.49989 14.6116 7.97102 14.5681 9.84965Z" fill="white"/>
<path d="M13.9685 12.2898C13.5015 12.0194 13.0259 12.1876 12.8293 12.4533L12.418 12.9856C12.209 13.256 11.8186 13.2201 11.8186 13.2201C8.96895 12.4666 8.20691 9.48458 8.20691 9.48458C8.20691 9.48458 8.17193 9.08087 8.43288 8.86436L8.94721 8.4389C9.20437 8.23468 9.36699 7.74304 9.1051 7.25991C8.40546 5.99583 7.93557 5.55997 7.69636 5.22528C7.44487 4.91044 7.06669 4.83953 6.67338 5.05226H6.66487C5.84704 5.53066 4.95169 6.42601 5.23817 7.34784C5.72697 8.31977 6.62516 11.418 9.48801 13.759C10.8334 14.8661 12.9626 16.0007 13.8664 16.2626L13.8749 16.2758C14.7656 16.5727 15.6316 15.6424 16.0939 14.8V14.7933C16.2991 14.3858 16.231 14.0001 15.9313 13.7477C15.4 13.2295 14.5982 12.6575 13.9685 12.2898Z" fill="white"/>
<path d="M11.7442 7.87437C12.6528 7.92731 13.0934 8.40193 13.1406 9.3767C13.1577 9.75773 13.7108 9.73125 13.6937 9.35023C13.6332 8.07764 12.9695 7.36854 11.7745 7.30236C11.4104 7.28062 11.3764 7.85262 11.7442 7.87437Z" fill="white"/>
<path d="M21.1891 13.3477C21.8661 7.64943 20.8639 4.05195 19.0562 2.42482L19.0571 2.42387C16.1394 -0.354837 6.28585 -0.766112 2.79522 2.54867C1.22764 4.17013 0.675494 6.54986 0.614985 9.49591C0.554475 12.4429 0.48262 17.9635 5.62687 19.4611H5.6316L5.62687 21.7481C5.62687 21.7481 5.59189 22.6747 6.18374 22.8609C6.86069 23.0803 7.16702 22.6501 9.27256 20.1352C12.7935 20.4406 15.4975 19.7409 15.8047 19.6388C16.5157 19.4006 20.5387 18.8683 21.1891 13.3477ZM9.61955 18.526C9.61955 18.526 7.3911 21.3047 6.69807 22.0261C6.47116 22.2606 6.22251 22.2388 6.22629 21.7737C6.22629 21.4683 6.24331 17.9767 6.24331 17.9767C1.8819 16.7268 2.13907 12.026 2.18634 9.56682C2.23361 7.10673 2.68365 5.09196 4.01108 3.73522C7.07342 0.863861 15.7121 1.50583 17.9131 3.5745C20.6039 5.95989 19.6461 12.6991 19.6518 12.9289C19.0987 17.5371 15.8388 17.8292 15.2394 18.0287C14.9831 18.1138 12.6053 18.7255 9.61955 18.526Z" fill="white"/>
</svg>
