<svg width="80" height="80" viewBox="0 0 80 80" fill="none" xmlns="http://www.w3.org/2000/svg">
<rect width="80" height="80" rx="40" fill="#00C293" fill-opacity="0.12"/>
<path d="M38 35C38 32.6967 37.1213 30.3934 35.364 28.636C31.8492 25.1213 26.1508 25.1213 22.636 28.636C20.8787 30.3934 20 32.6967 20 35M38 35C38 37.3033 37.1213 39.6066 35.364 41.364C31.8492 44.8787 26.1508 44.8787 22.636 41.364C20.8787 39.6066 20 37.3033 20 35M38 35H20" stroke="#00C293" stroke-width="3" stroke-linecap="round"/>
<path d="M45.5148 30.2431C47.858 32.5862 51.657 32.5862 54.0001 30.2431C55.1717 29.0715 55.7575 27.536 55.7575 26.0005C55.7575 24.4649 55.1717 22.9294 54.0001 21.7578C51.657 19.4147 47.858 19.4147 45.5148 21.7578C44.3433 22.9294 43.7575 24.4649 43.7575 26.0005C43.7575 27.536 44.3433 29.0715 45.5148 30.2431Z" stroke="#00C293" stroke-width="3" stroke-linecap="round"/>
<path d="M57.8104 50.7621C60.7299 47.8426 60.7299 43.1091 57.8104 40.1896C54.8909 37.2701 50.1574 37.2701 47.2379 40.1896L40.1896 47.2379C37.2701 50.1574 37.2701 54.8909 40.1896 57.8104C43.1091 60.7299 47.8426 60.7299 50.7621 57.8104L57.8104 50.7621Z" stroke="#00C293" stroke-width="3"/>
<path d="M44 44C44 44 44.5627 46.9191 47.822 50.1785C51.0814 53.4378 54 54 54 54" stroke="#00C293" stroke-width="3"/>
</svg>
