<svg width="25" height="24" viewBox="0 0 25 24" fill="none" xmlns="http://www.w3.org/2000/svg">
<path d="M21.4752 11.6852L20.4898 11.5148L21.4752 11.6852ZM20.7696 15.765L19.7842 15.5945L20.7696 15.765ZM7.43777 19.9771L6.44149 20.0632L7.43777 19.9771ZM6.62561 10.5844L7.62189 10.4983L6.62561 10.5844ZM14.495 4.72142L15.4818 4.88311V4.88311L14.495 4.72142ZM13.8323 8.76598L14.8191 8.92767V8.92767L13.8323 8.76598ZM7.19814 9.17749L6.54535 8.41995H6.54535L7.19814 9.17749ZM8.63688 7.93769L9.28967 8.69523L9.28967 8.69523L8.63688 7.93769ZM11.0181 4.28374L10.0501 4.03265L10.0501 4.03265L11.0181 4.28374ZM11.4938 2.44989L12.4617 2.70098L12.4617 2.70098L11.4938 2.44989ZM13.1676 1.56435L12.8617 2.51643L12.8617 2.51643L13.1676 1.56435ZM13.3126 1.61093L13.6184 0.658847L13.6184 0.658846L13.3126 1.61093ZM10.3619 5.96262L11.244 6.43378L10.3619 5.96262ZM14.4047 2.74752L13.4367 2.99862V2.99862L14.4047 2.74752ZM12.1742 1.63239L11.7401 0.73153V0.73153L12.1742 1.63239ZM4.4716 20.9707L3.47532 21.0569H3.47532L4.4716 20.9707ZM3.5 9.7342L4.49628 9.64806C4.45015 9.11453 3.99191 8.71204 3.45689 8.73513C2.92187 8.75822 2.5 9.19868 2.5 9.7342H3.5ZM20.4898 11.5148L19.7842 15.5945L21.755 15.9354L22.4605 11.8556L20.4898 11.5148ZM13.745 20.5H9.09635V22.5H13.745V20.5ZM8.43405 19.8909L7.62189 10.4983L5.62932 10.6705L6.44149 20.0632L8.43405 19.8909ZM19.7842 15.5945C19.2993 18.3989 16.7663 20.5 13.745 20.5V22.5C17.6862 22.5 21.0953 19.7499 21.755 15.9354L19.7842 15.5945ZM13.5081 4.55973L12.8454 8.60429L14.8191 8.92767L15.4818 4.88311L13.5081 4.55973ZM7.85093 9.93503L9.28967 8.69523L7.98409 7.18015L6.54535 8.41995L7.85093 9.93503ZM11.986 4.53484L12.4617 2.70098L10.5258 2.1988L10.0501 4.03265L11.986 4.53484ZM12.8617 2.51643L13.0067 2.563L13.6184 0.658846L13.4734 0.612275L12.8617 2.51643ZM11.244 6.43378C11.5652 5.83249 11.8147 5.19545 11.986 4.53484L10.0501 4.03265C9.91874 4.53902 9.72724 5.02842 9.4799 5.49145L11.244 6.43378ZM13.0067 2.563C13.2347 2.63624 13.3875 2.8089 13.4367 2.99862L15.3726 2.49643C15.1449 1.61838 14.4739 0.933656 13.6184 0.658847L13.0067 2.563ZM12.4617 2.70098C12.4777 2.63936 12.5249 2.57347 12.6083 2.53326L11.7401 0.73153C11.144 1.01876 10.6941 1.55011 10.5258 2.1988L12.4617 2.70098ZM12.6083 2.53326C12.6851 2.49626 12.7775 2.48936 12.8617 2.51643L13.4734 0.612276C12.9029 0.429001 12.2807 0.471046 11.7401 0.73153L12.6083 2.53326ZM14.6537 10.7342H19.8348V8.7342H14.6537V10.7342ZM5.46788 20.8846L4.49628 9.64806L2.50372 9.82035L3.47532 21.0569L5.46788 20.8846ZM4.5 21.0127V9.7342H2.5V21.0127H4.5ZM3.47532 21.0569C3.44952 20.7586 3.68458 20.5 3.98671 20.5V22.5C4.85955 22.5 5.54289 21.7521 5.46788 20.8846L3.47532 21.0569ZM15.4818 4.88311C15.612 4.08863 15.5748 3.27569 15.3726 2.49643L13.4367 2.99862C13.5689 3.50831 13.5933 4.04006 13.5081 4.55973L15.4818 4.88311ZM9.09635 20.5C8.75239 20.5 8.46393 20.2364 8.43405 19.8909L6.44149 20.0632C6.56061 21.4408 7.71274 22.5 9.09635 22.5V20.5ZM9.28967 8.69523C9.97363 8.10585 10.7367 7.38351 11.244 6.43378L9.4799 5.49145C9.15652 6.09684 8.6352 6.61908 7.98409 7.18015L9.28967 8.69523ZM22.4605 11.8556C22.7422 10.2266 21.4895 8.7342 19.8348 8.7342V10.7342C20.246 10.7342 20.5605 11.1058 20.4898 11.5148L22.4605 11.8556ZM3.98671 20.5C4.27126 20.5 4.5 20.7306 4.5 21.0127H2.5C2.5 21.8331 3.16455 22.5 3.98671 22.5V20.5ZM12.8454 8.60429C12.6628 9.71899 13.522 10.7342 14.6537 10.7342V8.7342C14.7584 8.7342 14.8355 8.82758 14.8191 8.92767L12.8454 8.60429ZM7.62189 10.4983C7.60338 10.2842 7.68884 10.0747 7.85093 9.93503L6.54535 8.41995C5.89613 8.97939 5.55551 9.81687 5.62932 10.6705L7.62189 10.4983Z" fill="#ABB6CC"/>
</svg>
