<svg width="244" height="244" viewBox="0 0 244 244" fill="none" xmlns="http://www.w3.org/2000/svg">
<g clip-path="url(#clip0_112_3778)">
<rect x="24" y="24" width="196" height="196" rx="98" fill="#E0F7F2"/>
<mask id="mask0_112_3778" style="mask-type:alpha" maskUnits="userSpaceOnUse" x="24" y="-87" width="196" height="307">
<path d="M24 -86.5L157.039 -11.4961C195.937 10.434 220 51.6235 220 96.2781V122C220 176.124 176.124 220 122 220C67.8761 220 24 176.124 24 122V-86.5Z" fill="#F7F7FA"/>
</mask>
<g mask="url(#mask0_112_3778)">
<g filter="url(#filter0_d_112_3778)">
<path d="M16 228L18.9241 202.897L18.9608 202.846L36.2186 179.104L34.8543 64.6985C34.8045 60.525 36.634 56.6004 39.8733 53.9312L79.5801 21.2123C85.1491 16.6233 93.2106 16.9899 98.3325 22.063L134.921 58.3064C137.557 60.9176 139.044 64.5333 138.999 68.2256L137.157 220.35L103.004 222.506L16 228Z" fill="white"/>
</g>
<path d="M113.69 106H99.3095C97.4845 106 96 104.524 96 102.711V77.2892C96 75.4755 97.4845 74 99.3095 74H113.69C115.515 74 117 75.4755 117 77.2892V102.711C117 104.524 115.515 106 113.69 106Z" fill="#F7F7FA"/>
<path d="M84.6003 162C83.6624 162 82.7793 161.677 82.1009 161.082C81.3911 160.46 81 159.623 81 158.727V134.467C81 132.986 82.1002 131.686 83.6753 131.304L84.4671 131.112C85.5782 130.844 86.7322 131.061 87.6334 131.709C88.5346 132.357 89.0321 133.327 88.9984 134.371L88.2066 158.823C88.1505 160.542 86.6243 161.937 84.7316 161.998C84.6877 162 84.644 162 84.6003 162Z" fill="#F7F7FA"/>
<path d="M126.4 162C126.356 162 126.312 162 126.269 161.998C124.376 161.937 122.849 160.542 122.794 158.823L122.002 134.371C121.968 133.327 122.466 132.357 123.367 131.709C124.268 131.061 125.421 130.844 126.533 131.112L127.325 131.304C128.9 131.686 130 132.986 130 134.467V158.727C130 159.623 129.609 160.46 128.899 161.082C128.221 161.676 127.337 162 126.4 162Z" fill="#F7F7FA"/>
<path d="M111.6 162H97.3999C96.4733 162 95.6072 161.639 94.9616 160.984C94.3156 160.329 93.9748 159.465 94.0015 158.552L94.7748 132.253C94.8294 130.415 96.3953 128.975 98.2564 129L111.683 129.323C113.543 129.368 115 130.84 115 132.673V158.649C115 160.497 113.475 162 111.6 162Z" fill="#F7F7FA"/>
<path d="M28.9209 217.574L28.9172 218.038L60.2767 218.283L60.2804 217.819L28.9209 217.574Z" fill="#3F3D56"/>
<path d="M30.5484 213.388L30.5393 213.852L60.5363 214.438L60.5453 213.973L30.5484 213.388Z" fill="#3F3D56"/>
<path d="M63.6802 167H48.3196C46.489 167 45 165.526 45 163.714V132.287C45 130.474 46.4891 129 48.3196 129H63.6802C65.5107 129 67 130.474 67 132.287V163.714C67 165.526 65.5107 167 63.6802 167Z" fill="#F7F7FA"/>
<path d="M93.2308 223H93V180.719C93 178.117 95.1348 176 97.7589 176H124.241C126.865 176 129 178.117 129 180.719V221.292L128.784 221.306L101.973 223L93.2308 223Z" fill="#F7F7FA"/>
<path d="M61.5957 110H56.4041C54.5269 110 53 108.506 53 106.669V82.3312C53 80.4944 54.527 79 56.4041 79H61.5957C63.4728 79 65 80.4944 65 82.3312V106.669C65 108.506 63.4728 110 61.5957 110Z" fill="#F7F7FA"/>
</g>
<path d="M179 59.2592L168 62V50H177.982L179 59.2592Z" fill="#F8A8AB"/>
<path d="M174 201H168V213H173.143L174 201Z" fill="#F8A8AB"/>
<path d="M197.043 192L192.855 195.859L199.087 205.852L202.385 201.924L197.043 192Z" fill="#F8A8AB"/>
<path d="M180.824 102H157.148L155 123.939L160.5 176L166.401 205H174.487L171.653 158.182L192.259 199.451L201 194.961L186.691 153.5C186.691 153.5 192.159 119.124 187.862 110.56C183.566 101.996 180.824 102 180.824 102Z" fill="#2F2E43"/>
<path d="M191 104H155L165.799 56H181.485L191 104Z" fill="#00BFA6"/>
<path d="M146.156 55.8489C145.586 53.0037 146.63 50.4034 148.48 50.0419C150.331 49.6804 152.293 51.6977 152.859 54.5429C153.1 55.6779 153.061 56.8517 152.748 57.9712L155 70.0633L149.18 71L147.578 58.9817C146.855 58.0644 146.37 56.9917 146.156 55.8489Z" fill="#F8A8AB"/>
<path d="M181.846 56.004H167.835L158.391 75.2955L154.827 60.8389L147 61.6867C147 61.6867 148.852 89.9321 156.946 88.9763C165.04 88.0205 183.917 62.5745 181.842 56H181.846V56.004Z" fill="#00BFA6"/>
<path d="M196.227 147C195.119 147 193.908 146.742 192.716 146.489C191.832 146.299 191.052 146.254 190.424 146.216C189.477 146.159 188.725 146.114 188.309 145.587C187.897 145.069 187.897 144.186 188.309 142.444C188.857 140.131 190.077 136.438 191.572 133.401C193.5 129.482 195.355 127.679 197.083 128.047C199.398 128.539 200.322 132.197 200.666 134.337C201.146 137.321 201.106 140.865 200.562 143.156C199.842 146.193 198.191 146.996 196.227 146.996V147ZM196.651 128.683C195.379 128.683 193.82 130.44 192.224 133.693C190.752 136.685 189.549 140.32 189.013 142.6C188.665 144.061 188.629 144.86 188.889 145.186C189.109 145.463 189.681 145.497 190.476 145.542C191.128 145.58 191.936 145.629 192.876 145.83C196.607 146.621 198.943 146.909 199.866 143.012C200.854 138.835 200.102 129.387 196.931 128.713C196.839 128.694 196.747 128.683 196.655 128.683H196.651Z" fill="#D9D9DB"/>
<path d="M210 175.771L176.246 176L171 173.488L174.056 141L177.131 141.162L208.755 142.84L210 175.771Z" fill="#E3E3E6"/>
<path d="M175.279 176L171 173.488L173.492 141L176 141.162L175.279 176Z" fill="#CAD0DB"/>
<path d="M197.844 129.151C198.414 131.996 197.37 134.597 195.52 134.958C193.669 135.32 191.707 133.302 191.141 130.457C190.9 129.322 190.939 128.148 191.252 127.029L189 114.937L194.82 114L196.422 126.018C197.145 126.936 197.63 128.008 197.844 129.151Z" fill="#F8A8AB"/>
<path d="M174 56.1498C174 56.1498 182.202 55.8128 182.629 56.1498C184.868 57.925 198 122 198 122H189.681L174 56.1498Z" fill="#00BFA6"/>
<path d="M187.464 58.6378L157.955 52.6258C157.142 49.9247 155.585 47.4446 159.883 43.2267C160.549 39.9812 162.453 37.1198 165.194 35.2451C167.934 33.3703 171.298 32.6285 174.577 33.1758C181.35 32.5751 185.155 37.3721 185.136 43.811L187.464 58.6378Z" fill="#2F2E41"/>
<path d="M170 53C174.971 53 179 48.9706 179 44C179 39.0294 174.971 35 170 35C165.029 35 161 39.0294 161 44C161 48.9706 165.029 53 170 53Z" fill="#F8A8AB"/>
<path d="M178.67 36.4808C177.316 34.4611 175.216 33.0563 172.828 32.5726L170.936 32.1872C168.528 31.6966 166.023 32.1793 163.972 33.5292C161.921 34.8791 160.492 36.9855 160 39.3852C161.359 41.1489 169.418 42.4855 174.222 43.0681C172.876 47.9051 167.705 51.8738 168.264 54.8152L187.181 58.6691L187.567 56.7841C190.886 48.8315 186.257 40.6907 178.67 36.4808Z" fill="#2F2E41"/>
<path d="M174.137 208.379L167.295 208V210.724L160.791 214.898C160.469 215.105 160.227 215.401 160.1 215.744C159.973 216.087 159.967 216.459 160.083 216.805C160.199 217.151 160.431 217.454 160.746 217.669C161.06 217.884 161.441 218 161.831 218H169.977L171.381 215.306L171.929 218H175L174.137 208.379Z" fill="#2F2E41"/>
<path d="M202.38 199.746L196.305 202.597L197.64 205.058L194.088 211.867C193.912 212.204 193.849 212.584 193.908 212.954C193.966 213.323 194.143 213.662 194.413 213.921C194.683 214.179 195.031 214.345 195.407 214.392C195.783 214.44 196.167 214.367 196.503 214.185L203.514 210.382L203.402 207.292L205.194 209.471L207.838 208.037L202.38 199.746Z" fill="#2F2E41"/>
<path d="M87.5 70C97.7173 70 106 61.7173 106 51.5C106 41.2827 97.7173 33 87.5 33C77.2827 33 69 41.2827 69 51.5C69 61.7173 77.2827 70 87.5 70Z" fill="#867FFF"/>
<path opacity="0.16" d="M87.5 67.5068C82.8196 67.5062 78.3134 65.8026 74.8898 62.7395C71.4661 59.6763 69.3796 55.4813 69.0507 51C69.0207 51.4134 69 51.8292 69 52.2499C69.0018 56.9582 70.9518 61.4729 74.421 64.8015C77.8902 68.1301 82.5947 70 87.5 70C92.4053 70 97.1098 68.1301 100.579 64.8015C104.048 61.4729 105.998 56.9582 106 52.2499C106 51.8292 105.979 51.4134 105.949 51C105.62 55.4813 103.534 59.6763 100.11 62.7395C96.6866 65.8026 92.1804 67.5062 87.5 67.5068Z" fill="#231F20"/>
<path d="M87.5001 61C86.8372 60.9993 86.2018 60.7419 85.7331 60.2845C85.2644 59.8271 85.0008 59.207 85 58.5601V44.4424C84.9997 44.1218 85.0641 43.8043 85.1896 43.508C85.315 43.2116 85.4991 42.9424 85.7313 42.7155C85.9635 42.4887 86.2392 42.3087 86.5427 42.186C86.8462 42.0632 87.1715 42 87.5 42C87.8285 42 88.1538 42.0632 88.4573 42.186C88.7608 42.3087 89.0365 42.4887 89.2687 42.7155C89.5009 42.9424 89.685 43.2116 89.8105 43.508C89.9359 43.8043 90.0003 44.1218 90 44.4424V58.5601C89.9993 59.2069 89.7356 59.8271 89.267 60.2845C88.7983 60.7419 88.1629 60.9992 87.5001 61Z" fill="white"/>
<path d="M78 51.5001C78.0007 50.8372 78.2581 50.2018 78.7155 49.7331C79.1729 49.2644 79.793 49.0008 80.4399 49H94.5575C94.8782 48.9997 95.1957 49.0641 95.492 49.1895C95.7884 49.315 96.0576 49.4991 96.2845 49.7313C96.5113 49.9635 96.6912 50.2392 96.814 50.5427C96.9368 50.8462 97 51.1715 97 51.5C97 51.8285 96.9368 52.1538 96.814 52.4573C96.6912 52.7608 96.5113 53.0365 96.2845 53.2687C96.0576 53.5009 95.7884 53.685 95.492 53.8105C95.1957 53.9359 94.8782 54.0003 94.5575 54H80.4399C79.7931 53.9993 79.1729 53.7356 78.7155 53.267C78.2581 52.7983 78.0008 52.1629 78 51.5001Z" fill="white"/>
<rect x="24.2677" y="24" width="12.8873" height="97.6349" transform="rotate(8.4029 24.2677 24)" fill="url(#paint0_linear_112_3778)"/>
</g>
<defs>
<filter id="filter0_d_112_3778" x="-12" y="2" width="179" height="266" filterUnits="userSpaceOnUse" color-interpolation-filters="sRGB">
<feFlood flood-opacity="0" result="BackgroundImageFix"/>
<feColorMatrix in="SourceAlpha" type="matrix" values="0 0 0 0 0 0 0 0 0 0 0 0 0 0 0 0 0 0 127 0" result="hardAlpha"/>
<feOffset dy="12"/>
<feGaussianBlur stdDeviation="14"/>
<feColorMatrix type="matrix" values="0 0 0 0 0 0 0 0 0 0 0 0 0 0 0 0 0 0 0.06 0"/>
<feBlend mode="normal" in2="BackgroundImageFix" result="effect1_dropShadow_112_3778"/>
<feBlend mode="normal" in="SourceGraphic" in2="effect1_dropShadow_112_3778" result="shape"/>
</filter>
<linearGradient id="paint0_linear_112_3778" x1="14.8237" y1="71.3888" x2="38.2401" y2="58.8321" gradientUnits="userSpaceOnUse">
<stop stop-color="white"/>
<stop offset="1" stop-color="white" stop-opacity="0"/>
</linearGradient>
<clipPath id="clip0_112_3778">
<rect width="244" height="244" fill="white"/>
</clipPath>
</defs>
</svg>
