<svg width="22" height="20" viewBox="0 0 22 20" xmlns="http://www.w3.org/2000/svg">
<path d="M7.96173 16.9109L8.58082 16.1256L7.96173 16.9109ZM11 3.50063L10.2795 4.1941C10.468 4.38996 10.7282 4.50063 11 4.50063C11.2718 4.50063 11.532 4.38996 11.7205 4.1941L11 3.50063ZM14.0383 16.9109L14.6574 17.6962L14.0383 16.9109ZM8.58082 16.1256C7.05033 14.919 5.42071 13.7725 4.12521 12.3138C2.864 10.8936 2 9.25648 2 7.1371H0C0 9.88065 1.14571 11.9707 2.62979 13.6418C4.07958 15.2743 5.93083 16.5832 7.34265 17.6962L8.58082 16.1256ZM2 7.1371C2 5.07976 3.16214 3.36745 4.72829 2.65156C6.2314 1.96449 8.28552 2.12242 10.2795 4.1941L11.7205 2.80716C9.21464 0.203679 6.26876 -0.251628 3.89683 0.832588C1.58794 1.88799 0 4.3315 0 7.1371H2ZM7.34265 17.6962C7.85258 18.0982 8.41592 18.5399 8.99069 18.8758C9.56514 19.2114 10.2461 19.5 11 19.5V17.5C10.7539 17.5 10.4349 17.4032 9.99974 17.149C9.56495 16.8949 9.10915 16.542 8.58082 16.1256L7.34265 17.6962ZM14.6574 17.6962C16.0692 16.5832 17.9204 15.2743 19.3702 13.6418C20.8543 11.9707 22 9.88065 22 7.1371H20C20 9.25648 19.136 10.8936 17.8748 12.3138C16.5793 13.7725 14.9497 14.919 13.4192 16.1256L14.6574 17.6962ZM22 7.1371C22 4.3315 20.4121 1.88799 18.1032 0.832588C15.7312 -0.251628 12.7854 0.203679 10.2795 2.80716L11.7205 4.1941C13.7145 2.12242 15.7686 1.96449 17.2717 2.65156C18.8379 3.36745 20 5.07976 20 7.1371H22ZM13.4192 16.1256C12.8909 16.542 12.435 16.8949 12.0003 17.149C11.5651 17.4032 11.2461 17.5 11 17.5V19.5C11.7539 19.5 12.4349 19.2114 13.0093 18.8758C13.5841 18.5399 14.1474 18.0982 14.6574 17.6962L13.4192 16.1256Z"/>
</svg>
