<svg width="22" height="23" viewBox="0 0 22 23" fill="none" xmlns="http://www.w3.org/2000/svg">
<path d="M6.875 17C7.63439 17 8.25 17.6156 8.25 18.375C8.25 19.1344 7.63439 19.75 6.875 19.75C6.11561 19.75 5.5 19.1344 5.5 18.375C5.5 17.6156 6.11561 17 6.875 17Z" stroke="white" stroke-width="2"/>
<path d="M15.125 17.0001C15.8844 17.0001 16.5 17.6157 16.5 18.3751C16.5 19.1345 15.8844 19.7501 15.125 19.7501C14.3656 19.7501 13.75 19.1345 13.75 18.3751C13.75 17.6157 14.3656 17.0001 15.125 17.0001Z" stroke="white" stroke-width="2"/>
<path d="M2.07245 3.33418L2.40413 2.39079V2.39079L2.07245 3.33418ZM2.16469 2.30661C1.64366 2.12343 1.0728 2.3973 0.889615 2.91832C0.706435 3.43934 0.980309 4.01021 1.50133 4.19339L2.16469 2.30661ZM4.20336 4.46273L5.029 3.89853L5.029 3.89853L4.20336 4.46273ZM5.39675 13.8707L4.67106 14.5587L4.67106 14.5587L5.39675 13.8707ZM18.936 9.55919L19.9154 9.76106L19.9166 9.75493L18.936 9.55919ZM18.4779 11.7818L19.4573 11.9837L19.4573 11.9837L18.4779 11.7818ZM19.0063 6.63899L18.2137 7.24873V7.24873L19.0063 6.63899ZM17.5388 14.2962L16.9071 13.521H16.9071L17.5388 14.2962ZM5.54458 9.44667V6.95183H3.54458V9.44667H5.54458ZM2.40413 2.39079L2.16469 2.30661L1.50133 4.19339L1.74077 4.27758L2.40413 2.39079ZM10.0257 15.7083H14.8867V13.7083H10.0257V15.7083ZM5.54458 6.95183C5.54458 6.31043 5.54594 5.74973 5.49612 5.28947C5.44387 4.80674 5.32742 4.33524 5.029 3.89853L3.37772 5.02693C3.42052 5.08956 3.47468 5.19935 3.50774 5.5047C3.54322 5.83253 3.54458 6.26671 3.54458 6.95183H5.54458ZM1.74077 4.27758C2.35975 4.4952 2.74138 4.63109 3.01687 4.76627C3.2662 4.8886 3.33786 4.9686 3.37772 5.02694L5.029 3.89853C4.72764 3.45753 4.33041 3.18299 3.89787 2.97076C3.49149 2.77136 2.97827 2.59265 2.40413 2.39079L1.74077 4.27758ZM3.54458 9.44667C3.54458 10.7705 3.55616 11.7595 3.68719 12.5245C3.83058 13.3617 4.12325 13.9809 4.67106 14.5587L6.12244 13.1826C5.87605 12.9228 5.74264 12.6782 5.65849 12.1869C5.56198 11.6234 5.54458 10.8192 5.54458 9.44667H3.54458ZM10.0257 13.7083C8.71767 13.7083 7.84268 13.706 7.19076 13.6135C6.57331 13.526 6.30532 13.3755 6.12243 13.1826L4.67106 14.5587C5.28237 15.2035 6.05061 15.4719 6.90996 15.5937C7.73484 15.7107 8.77722 15.7083 10.0257 15.7083V13.7083ZM4.54458 7.11H15.6644V5.11H4.54458V7.11ZM17.9565 9.35732L17.4984 11.58L19.4573 11.9837L19.9154 9.76105L17.9565 9.35732ZM15.6644 7.11C16.4552 7.11 17.1267 7.11134 17.6509 7.16993C17.9105 7.19896 18.0871 7.23762 18.1981 7.27662C18.3171 7.31843 18.2773 7.33135 18.2137 7.24873L19.7989 6.02925C19.5319 5.68214 19.1656 5.49668 18.8612 5.38972C18.5487 5.27994 18.205 5.21942 17.8731 5.18231C17.2142 5.10866 16.4182 5.11 15.6644 5.11V7.11ZM19.9166 9.75493C20.07 8.98671 20.2073 8.30988 20.2412 7.76127C20.2764 7.19088 20.2156 6.57088 19.7989 6.02925L18.2137 7.24873C18.2159 7.2516 18.2247 7.26058 18.234 7.30406C18.2457 7.3584 18.256 7.45908 18.245 7.63806C18.2215 8.01876 18.1202 8.53753 17.9553 9.36345L19.9166 9.75493ZM14.8867 15.7083C15.5771 15.7083 16.1855 15.7101 16.6812 15.6494C17.2041 15.5854 17.7168 15.4411 18.1705 15.0714L16.9071 13.521C16.8551 13.5634 16.7571 13.6252 16.4382 13.6642C16.092 13.7066 15.6272 13.7083 14.8867 13.7083V15.7083ZM17.4984 11.58C17.349 12.3052 17.2534 12.7602 17.142 13.0907C17.0394 13.3952 16.9591 13.4786 16.9071 13.521L18.1705 15.0714C18.6243 14.7017 18.869 14.2287 19.0373 13.7294C19.1968 13.2561 19.3179 12.6599 19.4573 11.9837L17.4984 11.58Z" fill="white"/>
<path d="M11.9163 12.4167V10.5833M11.9163 10.5833V8.75M11.9163 10.5833H13.7497M11.9163 10.5833H10.083" stroke="white" stroke-width="2" stroke-linecap="round"/>
</svg>
