<svg width="24" height="24" viewBox="0 0 24 24" fill="none" xmlns="http://www.w3.org/2000/svg">
<mask id="path-2-outside-1_1_399" maskUnits="userSpaceOnUse" x="0" y="0.285156" width="24" height="23" fill="black">
<rect fill="white" y="0.285156" width="24" height="23"/>
<path d="M2 9.13734C2 14.0003 6.01943 16.5917 8.96173 18.9111C10 19.7296 11 20.5002 12 20.5002C13 20.5002 14 19.7296 15.0383 18.9111C17.9806 16.5917 22 14.0003 22 9.13734C22 4.27441 16.4998 0.825708 12 5.50088C7.50016 0.825708 2 4.27441 2 9.13734Z"/>
</mask>
<path d="M2 9.13734C2 14.0003 6.01943 16.5917 8.96173 18.9111C10 19.7296 11 20.5002 12 20.5002C13 20.5002 14 19.7296 15.0383 18.9111C17.9806 16.5917 22 14.0003 22 9.13734C22 4.27441 16.4998 0.825708 12 5.50088C7.50016 0.825708 2 4.27441 2 9.13734Z" fill="white"/>
<path d="M8.96173 18.9111L7.72356 20.4818H7.72356L8.96173 18.9111ZM12 5.50088L10.559 6.88781C10.9361 7.27953 11.4563 7.50088 12 7.50088C12.5437 7.50088 13.0639 7.27953 13.441 6.88781L12 5.50088ZM15.0383 18.9111L13.8001 17.3405L15.0383 18.9111ZM10.1999 17.3405C8.61007 16.0872 7.09127 15.0219 5.87293 13.65C4.72315 12.3553 4 10.9446 4 9.13734H0C0 12.193 1.28656 14.5095 2.88208 16.3061C4.40902 18.0255 6.37108 19.4156 7.72356 20.4818L10.1999 17.3405ZM4 9.13734C4 7.45414 4.94925 6.10743 6.14402 5.5613C7.21272 5.07279 8.82096 5.08203 10.559 6.88781L13.441 4.11394C10.6792 1.24455 7.28745 0.640557 4.4811 1.92334C1.80083 3.1485 0 5.95761 0 9.13734H4ZM7.72356 20.4818C8.2243 20.8765 8.8414 21.3626 9.48617 21.7394C10.1303 22.1158 10.9923 22.5002 12 22.5002V18.5002C12.0077 18.5002 11.8697 18.4994 11.5043 18.2858C11.1395 18.0727 10.7374 17.7642 10.1999 17.3405L7.72356 20.4818ZM16.2764 20.4818C17.6289 19.4156 19.591 18.0255 21.1179 16.3061C22.7134 14.5095 24 12.193 24 9.13734H20C20 10.9446 19.2768 12.3553 18.1271 13.65C16.9087 15.0219 15.3899 16.0872 13.8001 17.3405L16.2764 20.4818ZM24 9.13734C24 5.95761 22.1992 3.1485 19.5189 1.92334C16.7126 0.640557 13.3208 1.24455 10.559 4.11394L13.441 6.88781C15.179 5.08203 16.7873 5.07279 17.856 5.5613C19.0508 6.10743 20 7.45414 20 9.13734H24ZM13.8001 17.3405C13.2626 17.7642 12.8605 18.0727 12.4957 18.2858C12.1303 18.4994 11.9923 18.5002 12 18.5002V22.5002C13.0077 22.5002 13.8697 22.1158 14.5138 21.7394C15.1586 21.3626 15.7757 20.8765 16.2764 20.4818L13.8001 17.3405Z" fill="white" mask="url(#path-2-outside-1_1_399)"/>
<path d="M8.96173 18.9106L9.58082 18.1253L8.96173 18.9106ZM12 5.50039L11.2795 6.19386C11.468 6.38972 11.7282 6.50039 12 6.50039C12.2718 6.50039 12.532 6.38972 12.7205 6.19386L12 5.50039ZM15.0383 18.9106L15.6574 19.696L15.0383 18.9106ZM9.58082 18.1253C8.05033 16.9188 6.42071 15.7723 5.12521 14.3135C3.864 12.8934 3 11.2562 3 9.13685H1C1 11.8804 2.14571 13.9704 3.62979 15.6416C5.07958 17.2741 6.93083 18.583 8.34265 19.696L9.58082 18.1253ZM3 9.13685C3 7.07952 4.16214 5.36721 5.72829 4.65132C7.2314 3.96425 9.28552 4.12217 11.2795 6.19386L12.7205 4.80692C10.2146 2.20343 7.26876 1.74813 4.89683 2.83234C2.58794 3.88775 1 6.33125 1 9.13685H3ZM8.34265 19.696C8.85258 20.0979 9.41592 20.5397 9.99069 20.8755C10.5651 21.2112 11.2461 21.4998 12 21.4998V19.4998C11.7539 19.4998 11.4349 19.403 10.9997 19.1487C10.565 18.8947 10.1091 18.5418 9.58082 18.1253L8.34265 19.696ZM15.6574 19.696C17.0692 18.583 18.9204 17.2741 20.3702 15.6416C21.8543 13.9704 23 11.8804 23 9.13685H21C21 11.2562 20.136 12.8934 18.8748 14.3135C17.5793 15.7723 15.9497 16.9188 14.4192 18.1253L15.6574 19.696ZM23 9.13685C23 6.33125 21.4121 3.88775 19.1032 2.83234C16.7312 1.74813 13.7854 2.20343 11.2795 4.80692L12.7205 6.19386C14.7145 4.12217 16.7686 3.96425 18.2717 4.65132C19.8379 5.36721 21 7.07952 21 9.13685H23ZM14.4192 18.1253C13.8909 18.5418 13.435 18.8947 13.0003 19.1487C12.5651 19.403 12.2461 19.4998 12 19.4998V21.4998C12.7539 21.4998 13.4349 21.2112 14.0093 20.8755C14.5841 20.5397 15.1474 20.0979 15.6574 19.696L14.4192 18.1253Z" fill="#ABB6CC"/>
</svg>
