<svg width="182" height="42" viewBox="0 0 182 42" fill="none" xmlns="http://www.w3.org/2000/svg">
<g clip-path="url(#clip0_51_3865)">
<path fill-rule="evenodd" clip-rule="evenodd" d="M73.5667 22.8616L65.005 29.2146L66.4953 22.8787H62.1904L57.9246 40.6046H62.6684L63.9437 34.7674L66.2786 33.2959L70.2771 40.6046H75.6592L70.0704 30.3082L75.5244 26.5618H82.0779L78.9498 40.6046H83.4492L86.7341 26.5618H93.2495L94.1236 22.8612H80.9076H75.8984L73.5667 22.8616ZM98.2023 37.0799C98.2023 37.0799 97.5741 37.0799 96.6881 37.0799L97.7511 32.125C98.3891 32.125 98.0657 32.125 99.2843 32.125C103.293 32.0645 101.699 37.1076 98.2023 37.0799ZM98.6147 28.3366C98.853 27.2492 99.5802 22.7877 99.5802 22.7877H95.0156L90.9855 40.6046H97.5085C107.013 40.4113 110.701 27.6244 98.6147 28.3366ZM60.8812 21.1266L64.6283 6.76635H70.0826L72.9925 14.2715L67.3181 21.085L72.4526 21.0766L84.8877 6.14105L81.672 21.1266H85.8371L88.4106 11.3305L89.72 21.1266H94.3862L100.369 10.953L98.0258 21.1266H102.507L106.875 2.99017H100.411L93.6195 14.4139L92.167 2.99017H87.5057H85.5613H82.2986L76.4941 9.89321L73.4513 2.99017H60.6501L56.5232 21.1266H60.8812ZM136.368 9.73415H128.817L130.399 2.99017H125.667L121.531 21.0741H126.274L127.893 13.6466H135.431L134.033 21.0741H138.44L142.538 2.99017H138.124L136.368 9.73415ZM109.249 22.7877L105.056 40.6046H110.061L114.18 22.7877H109.249ZM120.523 13.5616L121.271 9.92332L111.957 9.91885L112.794 6.37661H123.716L124.422 2.99017H108.624L104.343 21.1266H120.142L121.119 16.8882L110.312 16.865L111.095 13.5616H120.523ZM44.2149 21.1266L45.7223 15.8044C46.4584 15.8044 51.2617 15.8044 51.2617 15.8044C56.8851 15.4236 60.5763 9.02546 57.2601 4.59024C56.151 3.67649 54.889 2.96577 53.0857 2.99017H44.0389L39.8052 21.1266H44.2149ZM53.1549 34.189L50.6956 34.1282L54.0425 30.5865L53.1549 34.189ZM55.2892 22.8787L39.6819 40.6046H44.5893C44.5893 40.6046 46.805 38.221 47.1104 37.9256H52.231L51.5662 40.6046H56.4567L60.6891 22.8616L55.2892 22.8787ZM35.7206 31.9502L36.8852 26.7567C37.5706 26.7567 41.2663 26.7567 41.2663 26.7567C44.5671 26.9214 42.8586 31.9502 40.2784 31.9502C40.2788 31.9502 36.7555 31.9502 35.7206 31.9502ZM34.076 15.8728H27.8339L35.76 7.08326L34.076 15.8728ZM30.4701 31.9689C29.7339 31.9689 25.7235 31.9689 25.7235 31.9689C23.3478 31.6329 23.6917 26.4421 27.7209 26.7347C27.7209 26.7347 30.5209 26.7347 31.4995 26.7347L30.4701 31.9689ZM42.178 22.9923C42.178 22.9923 38.6603 22.9923 37.6293 22.9923C37.9241 21.7054 42.5979 0 42.5979 0H36.1092L6.83739 32.3944L8.99589 23.0015H4.46185L-0.00012207 40.6046H5.04979L13.2831 31.4725L11.3114 40.6046H15.8898C15.8898 40.6046 20.0671 24.5269 20.1209 24.2773C20.277 24.1305 24.0747 20.068 24.3346 19.769H32.9845L32.5335 22.9982C31.8457 22.9982 27.174 22.9982 27.174 22.9982C24.5185 23.0418 21.2761 24.8461 19.9156 27.5035C19.6451 28.2452 19.4166 29.1358 19.3804 30.0772C19.341 31.2159 19.544 32.4545 20.1918 33.4448C20.7481 34.3858 22.9065 35.649 25.3062 35.649C25.3062 35.649 28.2942 35.649 29.6189 35.649C29.3857 36.6901 28.0197 42 28.0197 42H33.2101C33.2101 42 34.6413 36.3581 34.8637 35.6177C35.5479 35.6177 39.7178 35.6177 39.7178 35.6177C47.4175 35.8922 51.8194 24.179 42.178 22.9923ZM46.4362 12.0746L47.6012 6.88067C48.2858 6.88067 51.9766 6.88067 51.9766 6.88067C55.2807 7.04707 53.5693 12.0746 50.9948 12.0746C50.9948 12.0746 47.4662 12.0746 46.4362 12.0746ZM165.959 16.865C165.959 16.865 165.325 16.865 164.443 16.865L165.51 11.9135C166.145 11.9135 165.821 11.9135 167.038 11.9135C172.003 12.047 169.03 17.0155 165.959 16.865ZM166.521 8.00432C166.751 6.91729 167.612 3.00483 167.612 3.00483L163.052 2.99017L158.944 21.0741H165.25C174.864 20.8918 178.622 7.41077 166.521 8.00432ZM161.94 3.06585H143.937L143.061 6.76635H149.554L146.14 21.0741H151.092L154.557 6.76635H161.066L161.94 3.06585ZM177.196 2.99017L172.948 21.0741H177.951L182 2.99017H177.196Z" fill="#DA2429"/>
</g>
<defs>
<clipPath id="clip0_51_3865">
<rect width="182" height="42" fill="white"/>
</clipPath>
</defs>
</svg>
